<svg width="184" height="129" viewBox="0 0 184 129" fill="none" xmlns="http://www.w3.org/2000/svg">
<path d="M130.767 54.3123H105.747V48.9048C105.747 48.5615 105.61 48.2322 105.368 47.9895C105.125 47.7467 104.796 47.6104 104.452 47.6104H97.1052V41.8461C97.1052 41.63 97.0193 41.4227 96.8665 41.2699C96.7137 41.1171 96.5064 41.0312 96.2903 41.0312H86.8261C86.61 41.0312 86.4028 41.1171 86.25 41.2699C86.0972 41.4227 86.0113 41.63 86.0113 41.8461V47.6104H77.3736C77.0303 47.6104 76.7011 47.7467 76.4584 47.9895C76.2156 48.2322 76.0793 48.5615 76.0793 48.9048V54.3123H52.2209C52.1515 54.3128 52.085 54.3408 52.0361 54.3901C51.9872 54.4394 51.9597 54.506 51.9597 54.5755V126.418C51.9597 126.487 51.9872 126.554 52.0361 126.603C52.085 126.652 52.1515 126.68 52.2209 126.681H68.0771C68.1117 126.681 68.1459 126.674 68.1778 126.661C68.2097 126.647 68.2388 126.628 68.2632 126.604C68.2876 126.579 68.307 126.55 68.3202 126.518C68.3335 126.486 68.3403 126.452 68.3403 126.418V116.753C68.3408 116.683 68.3687 116.616 68.4179 116.567C68.4672 116.518 68.5338 116.49 68.6034 116.489H75.3015C75.3711 116.49 75.4377 116.518 75.487 116.567C75.5362 116.616 75.5641 116.683 75.5646 116.753V126.418C75.5646 126.487 75.5921 126.554 75.641 126.603C75.69 126.652 75.7564 126.68 75.8258 126.681H107.158C107.228 126.68 107.294 126.652 107.344 126.603C107.393 126.554 107.421 126.487 107.421 126.418V116.753C107.421 116.683 107.449 116.616 107.498 116.567C107.547 116.518 107.613 116.49 107.682 116.489H114.38C114.45 116.489 114.517 116.517 114.567 116.566C114.616 116.616 114.644 116.683 114.644 116.753V126.418C114.644 126.487 114.672 126.554 114.721 126.603C114.771 126.652 114.837 126.68 114.907 126.681H130.763C130.833 126.68 130.899 126.652 130.948 126.603C130.998 126.554 131.026 126.487 131.026 126.418V54.5794C131.027 54.5097 131 54.4427 130.951 54.3927C130.903 54.3427 130.836 54.3138 130.767 54.3123ZM65.502 113.133C65.502 113.202 65.4745 113.268 65.4255 113.317C65.3765 113.366 65.31 113.394 65.2408 113.394H55.4471C55.4127 113.394 55.3785 113.387 55.3466 113.374C55.3147 113.361 55.2856 113.342 55.2612 113.318C55.2367 113.294 55.2173 113.265 55.204 113.233C55.1908 113.201 55.184 113.167 55.184 113.133V109.787C55.184 109.718 55.2117 109.651 55.2611 109.601C55.3104 109.552 55.3773 109.524 55.4471 109.524H65.2466C65.3161 109.525 65.3825 109.553 65.4314 109.602C65.4804 109.651 65.5078 109.718 65.5078 109.787L65.502 113.133ZM65.502 104.489C65.5022 104.524 65.4957 104.558 65.4827 104.59C65.4697 104.622 65.4505 104.651 65.4262 104.675C65.4019 104.699 65.373 104.719 65.3412 104.732C65.3094 104.745 65.2752 104.752 65.2408 104.752H55.4471C55.4125 104.752 55.3782 104.746 55.3461 104.733C55.3141 104.72 55.285 104.7 55.2605 104.676C55.236 104.651 55.2166 104.622 55.2035 104.59C55.1903 104.558 55.1837 104.524 55.184 104.489V101.146C55.1837 101.111 55.1903 101.077 55.2035 101.045C55.2166 101.013 55.236 100.984 55.2605 100.959C55.285 100.935 55.3141 100.915 55.3461 100.902C55.3782 100.889 55.4125 100.882 55.4471 100.883H65.2466C65.2811 100.883 65.3152 100.89 65.347 100.903C65.3789 100.916 65.4077 100.935 65.432 100.96C65.4563 100.984 65.4755 101.013 65.4885 101.045C65.5015 101.077 65.5081 101.111 65.5078 101.146L65.502 104.489ZM65.502 95.8475C65.502 95.917 65.4745 95.9836 65.4256 96.0329C65.3767 96.0822 65.3102 96.1101 65.2408 96.1107H55.4471C55.3773 96.1107 55.3104 96.0829 55.2611 96.0336C55.2117 95.9842 55.184 95.9173 55.184 95.8475V92.5024C55.184 92.4326 55.2117 92.3657 55.2611 92.3163C55.3104 92.2669 55.3773 92.2392 55.4471 92.2392H65.2466C65.3161 92.2397 65.3825 92.2677 65.4314 92.317C65.4804 92.3663 65.5078 92.4329 65.5078 92.5024L65.502 95.8475ZM65.502 87.204C65.5022 87.2385 65.4957 87.2726 65.4827 87.3046C65.4697 87.3365 65.4505 87.3655 65.4262 87.39C65.4019 87.4144 65.373 87.4338 65.3412 87.4471C65.3094 87.4603 65.2752 87.4672 65.2408 87.4672H55.4471C55.4125 87.4674 55.3782 87.4608 55.3461 87.4477C55.3141 87.4345 55.285 87.4152 55.2605 87.3907C55.236 87.3662 55.2166 87.3371 55.2035 87.305C55.1903 87.273 55.1837 87.2386 55.184 87.204V83.8608C55.1837 83.8262 55.1903 83.7919 55.2035 83.7598C55.2166 83.7278 55.236 83.6987 55.2605 83.6742C55.285 83.6497 55.3141 83.6303 55.3461 83.6172C55.3782 83.604 55.4125 83.5974 55.4471 83.5977H65.2466C65.2811 83.5977 65.3152 83.6045 65.347 83.6177C65.3789 83.631 65.4077 83.6504 65.432 83.6749C65.4563 83.6993 65.4755 83.7284 65.4885 83.7603C65.5015 83.7922 65.5081 83.8264 65.5078 83.8608L65.502 87.204ZM65.502 78.5625C65.502 78.6319 65.4745 78.6986 65.4256 78.7478C65.3767 78.7971 65.3102 78.8251 65.2408 78.8256H55.4471C55.4126 78.8256 55.3784 78.8188 55.3464 78.8056C55.3145 78.7924 55.2855 78.773 55.2611 78.7485C55.2366 78.7241 55.2172 78.6951 55.204 78.6632C55.1908 78.6312 55.184 78.597 55.184 78.5625V75.2173C55.184 75.1829 55.1908 75.1487 55.204 75.1169C55.2173 75.0851 55.2367 75.0562 55.2612 75.0319C55.2856 75.0076 55.3147 74.9884 55.3466 74.9754C55.3785 74.9624 55.4127 74.9559 55.4471 74.9561H65.2466C65.3159 74.9561 65.3823 74.9836 65.4313 75.0326C65.4803 75.0816 65.5078 75.1481 65.5078 75.2173L65.502 78.5625ZM65.502 69.9209C65.502 69.9902 65.4745 70.0566 65.4255 70.1056C65.3765 70.1546 65.31 70.1821 65.2408 70.1821H55.4471C55.4127 70.1824 55.3785 70.1758 55.3466 70.1628C55.3147 70.1498 55.2856 70.1306 55.2612 70.1063C55.2367 70.082 55.2173 70.0531 55.204 70.0213C55.1908 69.9895 55.184 69.9554 55.184 69.9209V66.5758C55.184 66.506 55.2117 66.439 55.2611 66.3897C55.3104 66.3403 55.3773 66.3126 55.4471 66.3126H65.2466C65.3161 66.3131 65.3825 66.3411 65.4314 66.3904C65.4804 66.4397 65.5078 66.5063 65.5078 66.5758L65.502 69.9209ZM65.502 61.2774C65.5022 61.3119 65.4957 61.346 65.4827 61.378C65.4697 61.4099 65.4505 61.4389 65.4262 61.4634C65.4019 61.4878 65.373 61.5072 65.3412 61.5205C65.3094 61.5337 65.2752 61.5406 65.2408 61.5406H55.4471C55.4125 61.5408 55.3782 61.5342 55.3461 61.5211C55.3141 61.5079 55.285 61.4885 55.2605 61.4641C55.236 61.4396 55.2166 61.4105 55.2035 61.3784C55.1903 61.3464 55.1837 61.312 55.184 61.2774V57.9342C55.1837 57.8996 55.1903 57.8653 55.2035 57.8332C55.2166 57.8012 55.236 57.7721 55.2605 57.7476C55.285 57.7231 55.3141 57.7037 55.3461 57.6906C55.3782 57.6774 55.4125 57.6708 55.4471 57.6711H65.2466C65.2811 57.6711 65.3152 57.6779 65.347 57.6911C65.3789 57.7044 65.4077 57.7238 65.432 57.7483C65.4563 57.7727 65.4755 57.8018 65.4885 57.8337C65.5015 57.8656 65.5081 57.8998 65.5078 57.9342L65.502 61.2774ZM88.7209 113.131C88.7209 113.165 88.7141 113.199 88.7009 113.231C88.6876 113.263 88.6682 113.292 88.6437 113.316C88.6193 113.34 88.5902 113.359 88.5583 113.373C88.5264 113.386 88.4922 113.392 88.4578 113.392H78.6641C78.5947 113.392 78.528 113.364 78.4787 113.315C78.4294 113.267 78.4015 113.2 78.401 113.131V109.787C78.4015 109.718 78.4294 109.651 78.4786 109.602C78.5278 109.553 78.5945 109.525 78.6641 109.524H88.4578C88.5276 109.524 88.5945 109.552 88.6438 109.601C88.6932 109.651 88.7209 109.718 88.7209 109.787V113.131ZM88.7209 104.487C88.7212 104.522 88.7146 104.556 88.7014 104.588C88.6883 104.62 88.6689 104.649 88.6444 104.674C88.6199 104.698 88.5908 104.718 88.5588 104.731C88.5267 104.744 88.4924 104.751 88.4578 104.75H78.6641C78.6296 104.75 78.5953 104.743 78.5634 104.73C78.5315 104.717 78.5025 104.698 78.478 104.673C78.4536 104.649 78.4342 104.62 78.421 104.588C78.4078 104.556 78.401 104.522 78.401 104.487V101.146C78.401 101.076 78.4287 101.009 78.478 100.96C78.5274 100.91 78.5943 100.883 78.6641 100.883H88.4578C88.4924 100.882 88.5267 100.889 88.5588 100.902C88.5908 100.915 88.6199 100.935 88.6444 100.959C88.6689 100.984 88.6883 101.013 88.7014 101.045C88.7146 101.077 88.7212 101.111 88.7209 101.146V104.487ZM88.7209 95.8456C88.7209 95.9153 88.6932 95.9823 88.6438 96.0316C88.5945 96.081 88.5276 96.1087 88.4578 96.1087H78.6641C78.5945 96.1082 78.5278 96.0803 78.4786 96.0311C78.4294 95.9818 78.4015 95.9152 78.401 95.8456V92.5024C78.4015 92.4327 78.4294 92.3661 78.4786 92.3169C78.5278 92.2676 78.5945 92.2397 78.6641 92.2392H88.4578C88.5276 92.2392 88.5945 92.2669 88.6438 92.3163C88.6932 92.3657 88.7209 92.4326 88.7209 92.5024V95.8456ZM88.7209 87.202C88.7212 87.2367 88.7146 87.271 88.7014 87.3031C88.6883 87.3351 88.6689 87.3642 88.6444 87.3887C88.6199 87.4132 88.5908 87.4326 88.5588 87.4457C88.5267 87.4589 88.4924 87.4655 88.4578 87.4652H78.6641C78.5943 87.4652 78.5274 87.4375 78.478 87.3881C78.4287 87.3388 78.401 87.2718 78.401 87.202V83.8608C78.401 83.791 78.4287 83.7241 78.478 83.6748C78.5274 83.6254 78.5943 83.5977 78.6641 83.5977H88.4578C88.4924 83.5974 88.5267 83.604 88.5588 83.6172C88.5908 83.6303 88.6199 83.6497 88.6444 83.6742C88.6689 83.6987 88.6883 83.7278 88.7014 83.7598C88.7146 83.7919 88.7212 83.8262 88.7209 83.8608V87.202ZM88.7209 78.5605C88.7209 78.6303 88.6932 78.6972 88.6438 78.7466C88.5945 78.7959 88.5276 78.8237 88.4578 78.8237H78.6641C78.5945 78.8232 78.5278 78.7953 78.4786 78.746C78.4294 78.6968 78.4015 78.6301 78.401 78.5605V75.2173C78.4015 75.1479 78.4294 75.0814 78.4787 75.0325C78.528 74.9836 78.5947 74.9561 78.6641 74.9561H88.4578C88.4922 74.9559 88.5264 74.9624 88.5583 74.9754C88.5902 74.9884 88.6193 75.0076 88.6437 75.0319C88.6682 75.0562 88.6876 75.0851 88.7009 75.1169C88.7141 75.1487 88.7209 75.1829 88.7209 75.2173V78.5605ZM88.7209 69.9189C88.7209 69.9534 88.7141 69.9875 88.7009 70.0194C88.6876 70.0512 88.6682 70.0801 88.6437 70.1043C88.6193 70.1286 88.5902 70.1478 88.5583 70.1608C88.5264 70.1739 88.4922 70.1804 88.4578 70.1802H78.6641C78.5947 70.1802 78.528 70.1527 78.4787 70.1038C78.4294 70.0548 78.4015 69.9884 78.401 69.9189V66.5758C78.4015 66.5061 78.4294 66.4395 78.4786 66.3903C78.5278 66.341 78.5945 66.3131 78.6641 66.3126H88.4578C88.5276 66.3126 88.5945 66.3403 88.6438 66.3897C88.6932 66.439 88.7209 66.506 88.7209 66.5758V69.9189ZM88.7209 61.2754C88.7212 61.3101 88.7146 61.3444 88.7014 61.3765C88.6883 61.4085 88.6689 61.4376 88.6444 61.4621C88.6199 61.4866 88.5908 61.506 88.5588 61.5191C88.5267 61.5322 88.4924 61.5389 88.4578 61.5386H78.6641C78.6296 61.5386 78.5953 61.5318 78.5634 61.5186C78.5315 61.5054 78.5025 61.486 78.478 61.4615C78.4536 61.4371 78.4342 61.4081 78.421 61.3762C78.4078 61.3442 78.401 61.31 78.401 61.2754V57.9342C78.401 57.8644 78.4287 57.7975 78.478 57.7481C78.5274 57.6988 78.5943 57.6711 78.6641 57.6711H88.4578C88.4924 57.6708 88.5267 57.6774 88.5588 57.6906C88.5908 57.7037 88.6199 57.7231 88.6444 57.7476C88.6689 57.7721 88.6883 57.8012 88.7014 57.8332C88.7146 57.8653 88.7212 57.8996 88.7209 57.9342V61.2754ZM104.587 113.129C104.587 113.163 104.58 113.197 104.567 113.229C104.554 113.261 104.534 113.29 104.51 113.314C104.485 113.338 104.456 113.358 104.424 113.371C104.392 113.384 104.358 113.39 104.324 113.39H94.53C94.4606 113.39 94.3939 113.362 94.3446 113.313C94.2953 113.265 94.2674 113.198 94.2669 113.129V109.787C94.2674 109.718 94.2953 109.651 94.3445 109.602C94.3938 109.553 94.4604 109.525 94.53 109.524H104.324C104.393 109.524 104.46 109.552 104.51 109.601C104.559 109.651 104.587 109.718 104.587 109.787V113.129ZM104.587 104.485C104.587 104.52 104.58 104.554 104.567 104.586C104.554 104.618 104.535 104.647 104.51 104.672C104.486 104.696 104.457 104.716 104.425 104.729C104.393 104.742 104.358 104.749 104.324 104.748H94.53C94.4955 104.748 94.4613 104.742 94.4293 104.728C94.3974 104.715 94.3684 104.696 94.344 104.671C94.3195 104.647 94.3001 104.618 94.2869 104.586C94.2737 104.554 94.2669 104.52 94.2669 104.485V101.146C94.2669 101.111 94.2737 101.077 94.2869 101.045C94.3001 101.013 94.3195 100.984 94.344 100.96C94.3684 100.935 94.3974 100.916 94.4293 100.903C94.4613 100.89 94.4955 100.883 94.53 100.883H104.324C104.358 100.882 104.393 100.889 104.425 100.902C104.457 100.915 104.486 100.935 104.51 100.959C104.535 100.984 104.554 101.013 104.567 101.045C104.58 101.077 104.587 101.111 104.587 101.146V104.485ZM104.587 95.8436C104.587 95.8782 104.58 95.9124 104.567 95.9443C104.554 95.9762 104.534 96.0052 104.51 96.0297C104.485 96.0541 104.456 96.0735 104.424 96.0867C104.392 96.1 104.358 96.1068 104.324 96.1068H94.53C94.4604 96.1063 94.3938 96.0784 94.3445 96.0291C94.2953 95.9799 94.2674 95.9132 94.2669 95.8436V92.5024C94.2674 92.4327 94.2953 92.3661 94.3445 92.3169C94.3938 92.2676 94.4604 92.2397 94.53 92.2392H104.324C104.393 92.2392 104.46 92.2669 104.51 92.3163C104.559 92.3657 104.587 92.4326 104.587 92.5024V95.8436ZM104.587 87.2001C104.587 87.2347 104.58 87.2691 104.567 87.3011C104.554 87.3332 104.535 87.3623 104.51 87.3868C104.486 87.4113 104.457 87.4306 104.425 87.4438C104.393 87.4569 104.358 87.4635 104.324 87.4633H94.53C94.4955 87.4633 94.4613 87.4565 94.4293 87.4432C94.3974 87.43 94.3684 87.4106 94.344 87.3862C94.3195 87.3618 94.3001 87.3327 94.2869 87.3008C94.2737 87.2689 94.2669 87.2347 94.2669 87.2001V83.8608C94.2669 83.8263 94.2737 83.792 94.2869 83.7601C94.3001 83.7282 94.3195 83.6992 94.344 83.6748C94.3684 83.6503 94.3974 83.6309 94.4293 83.6177C94.4613 83.6045 94.4955 83.5977 94.53 83.5977H104.324C104.358 83.5974 104.393 83.604 104.425 83.6172C104.457 83.6303 104.486 83.6497 104.51 83.6742C104.535 83.6987 104.554 83.7278 104.567 83.7598C104.58 83.7919 104.587 83.8262 104.587 83.8608V87.2001ZM104.587 78.5586C104.587 78.6283 104.559 78.6953 104.51 78.7446C104.46 78.794 104.393 78.8217 104.324 78.8217H94.53C94.4604 78.8212 94.3938 78.7933 94.3445 78.7441C94.2953 78.6948 94.2674 78.6282 94.2669 78.5586V75.2173C94.2674 75.1479 94.2953 75.0814 94.3446 75.0325C94.3939 74.9836 94.4606 74.9561 94.53 74.9561H104.324C104.358 74.9559 104.392 74.9624 104.424 74.9754C104.456 74.9884 104.485 75.0076 104.51 75.0319C104.534 75.0562 104.554 75.0851 104.567 75.1169C104.58 75.1487 104.587 75.1829 104.587 75.2173V78.5586ZM104.587 69.917C104.587 69.9515 104.58 69.9856 104.567 70.0174C104.554 70.0492 104.534 70.0781 104.51 70.1024C104.485 70.1267 104.456 70.1459 104.424 70.1589C104.392 70.1719 104.358 70.1785 104.324 70.1782H94.53C94.4606 70.1782 94.3939 70.1508 94.3446 70.1018C94.2953 70.0529 94.2674 69.9865 94.2669 69.917V66.5758C94.2674 66.5061 94.2953 66.4395 94.3445 66.3903C94.3938 66.341 94.4604 66.3131 94.53 66.3126H104.324C104.393 66.3126 104.46 66.3403 104.51 66.3897C104.559 66.439 104.587 66.506 104.587 66.5758V69.917ZM104.587 61.2735C104.587 61.3081 104.58 61.3425 104.567 61.3745C104.554 61.4066 104.535 61.4357 104.51 61.4602C104.486 61.4847 104.457 61.504 104.425 61.5172C104.393 61.5303 104.358 61.5369 104.324 61.5367H94.53C94.4955 61.5367 94.4613 61.5299 94.4293 61.5166C94.3974 61.5034 94.3684 61.484 94.344 61.4596C94.3195 61.4351 94.3001 61.4061 94.2869 61.3742C94.2737 61.3423 94.2669 61.3081 94.2669 61.2735V57.9342C94.2669 57.8997 94.2737 57.8654 94.2869 57.8335C94.3001 57.8016 94.3195 57.7726 94.344 57.7481C94.3684 57.7237 94.3974 57.7043 94.4293 57.6911C94.4613 57.6779 94.4955 57.6711 94.53 57.6711H104.324C104.358 57.6708 104.393 57.6774 104.425 57.6906C104.457 57.7037 104.486 57.7231 104.51 57.7476C104.535 57.7721 104.554 57.8012 104.567 57.8332C104.58 57.8653 104.587 57.8996 104.587 57.9342V61.2735ZM127.806 113.127C127.805 113.196 127.777 113.263 127.728 113.312C127.679 113.36 127.612 113.388 127.543 113.388H117.749C117.715 113.388 117.68 113.382 117.648 113.369C117.617 113.356 117.587 113.336 117.563 113.312C117.539 113.288 117.519 113.259 117.506 113.227C117.493 113.195 117.486 113.161 117.486 113.127V109.787C117.486 109.718 117.514 109.651 117.563 109.601C117.612 109.552 117.679 109.524 117.749 109.524H127.543C127.612 109.525 127.679 109.553 127.728 109.602C127.777 109.651 127.805 109.718 127.806 109.787V113.127ZM127.806 104.483C127.806 104.553 127.778 104.62 127.729 104.669C127.679 104.719 127.612 104.746 127.543 104.746H117.749C117.681 104.746 117.615 104.719 117.567 104.671C117.518 104.622 117.491 104.557 117.49 104.489V101.146C117.489 101.111 117.496 101.077 117.509 101.045C117.522 101.013 117.542 100.984 117.566 100.959C117.591 100.935 117.62 100.915 117.652 100.902C117.684 100.889 117.718 100.882 117.753 100.883H127.547C127.616 100.883 127.683 100.91 127.733 100.96C127.782 101.009 127.81 101.076 127.81 101.146L127.806 104.483ZM127.806 95.8417C127.805 95.9113 127.777 95.9779 127.728 96.0272C127.679 96.0764 127.612 96.1043 127.543 96.1048H117.749C117.679 96.1048 117.612 96.0771 117.563 96.0277C117.514 95.9784 117.486 95.9114 117.486 95.8417V92.5024C117.486 92.4326 117.514 92.3657 117.563 92.3163C117.612 92.2669 117.679 92.2392 117.749 92.2392H127.543C127.612 92.2397 127.679 92.2676 127.728 92.3169C127.777 92.3661 127.805 92.4327 127.806 92.5024V95.8417ZM127.806 87.1982C127.806 87.268 127.778 87.3349 127.729 87.3842C127.679 87.4336 127.612 87.4613 127.543 87.4613H117.749C117.714 87.4616 117.68 87.4549 117.648 87.4418C117.616 87.4287 117.587 87.4093 117.562 87.3848C117.538 87.3603 117.518 87.3312 117.505 87.2992C117.492 87.2671 117.486 87.2328 117.486 87.1982V83.8608C117.486 83.8262 117.492 83.7919 117.505 83.7598C117.518 83.7278 117.538 83.6987 117.562 83.6742C117.587 83.6497 117.616 83.6303 117.648 83.6172C117.68 83.604 117.714 83.5974 117.749 83.5977H127.543C127.612 83.5977 127.679 83.6254 127.729 83.6748C127.778 83.7241 127.806 83.791 127.806 83.8608V87.1982ZM127.806 78.5566C127.805 78.6262 127.777 78.6929 127.728 78.7421C127.679 78.7914 127.612 78.8193 127.543 78.8198H117.749C117.681 78.8188 117.616 78.7914 117.567 78.7434C117.519 78.6954 117.491 78.6306 117.49 78.5625V75.2173C117.49 75.1829 117.497 75.1487 117.51 75.1169C117.523 75.0851 117.542 75.0562 117.567 75.0319C117.591 75.0076 117.62 74.9884 117.652 74.9754C117.684 74.9624 117.718 74.9559 117.753 74.9561H127.547C127.616 74.9561 127.683 74.9836 127.732 75.0325C127.781 75.0814 127.809 75.1479 127.81 75.2173L127.806 78.5566ZM127.806 69.9151C127.805 69.9845 127.777 70.0509 127.728 70.0999C127.679 70.1488 127.612 70.1763 127.543 70.1763H117.749C117.715 70.1765 117.68 70.17 117.648 70.1569C117.617 70.1439 117.587 70.1247 117.563 70.1005C117.539 70.0762 117.519 70.0473 117.506 70.0155C117.493 69.9836 117.486 69.9495 117.486 69.9151V66.5758C117.486 66.506 117.514 66.439 117.563 66.3897C117.612 66.3403 117.679 66.3126 117.749 66.3126H127.543C127.612 66.3131 127.679 66.341 127.728 66.3903C127.777 66.4395 127.805 66.5061 127.806 66.5758V69.9151ZM127.806 61.2716C127.806 61.3413 127.778 61.4083 127.729 61.4576C127.679 61.507 127.612 61.5347 127.543 61.5347H117.749C117.714 61.535 117.68 61.5283 117.648 61.5152C117.616 61.5021 117.587 61.4827 117.562 61.4582C117.538 61.4337 117.518 61.4046 117.505 61.3726C117.492 61.3405 117.486 61.3062 117.486 61.2716V57.9342C117.486 57.8996 117.492 57.8653 117.505 57.8332C117.518 57.8012 117.538 57.7721 117.562 57.7476C117.587 57.7231 117.616 57.7037 117.648 57.6906C117.68 57.6774 117.714 57.6708 117.749 57.6711H127.543C127.612 57.6711 127.679 57.6988 127.729 57.7481C127.778 57.7975 127.806 57.8644 127.806 57.9342V61.2716Z" fill="#F2F2F2"/>
<path d="M49.9987 7.04408L46.9733 8.96226L48.8096 5.62104C48.2896 5.20617 47.6462 4.97639 46.9811 4.968H46.9323C46.7221 4.97115 46.512 4.95549 46.3046 4.92122L45.2793 5.57816L45.7179 4.77891C44.9907 4.52538 44.3627 4.04759 43.9244 3.41436L42.0901 4.58398L43.248 2.47671C42.1759 1.18818 40.7294 0.398682 39.1368 0.398682C37.2284 0.398682 35.5285 1.53321 34.431 3.30129C34.1065 3.83218 33.6466 4.26722 33.0985 4.56181C32.5504 4.85641 31.9339 4.99996 31.312 4.97775H31.2107C29.1034 4.97775 27.3958 7.36768 27.3958 10.3151C27.3958 13.2626 29.1034 15.6505 31.2107 15.6505C31.6736 15.6481 32.129 15.5338 32.5382 15.3172C33.2554 14.9683 34.0399 14.7795 34.8373 14.764C35.6348 14.7485 36.426 14.9067 37.1562 15.2275C37.7738 15.5038 38.4427 15.6466 39.1193 15.6466C39.7958 15.6466 40.4647 15.5038 41.0823 15.2275C41.8067 14.9134 42.5902 14.7588 43.3796 14.7743C44.1691 14.7897 44.9459 14.9749 45.6574 15.3172C46.0638 15.5292 46.515 15.6409 46.9733 15.6428C49.0805 15.6428 50.7882 13.2528 50.7882 10.3073C50.8033 9.17052 50.5318 8.04823 49.9987 7.04408Z" fill="#F2F2F2"/>
<path opacity="0.03" d="M44.2968 14.8514C43.1961 14.6418 42.0578 14.7653 41.0277 15.2061C40.4103 15.4818 39.7418 15.6242 39.0657 15.6242C38.3895 15.6242 37.721 15.4818 37.1036 15.2061C35.663 14.5687 33.8599 14.5823 32.4856 15.2978C32.0757 15.514 31.6195 15.6277 31.1561 15.6292C29.2847 15.6292 27.7272 13.7441 27.4036 11.2567C27.7771 10.9838 28.0948 10.6417 28.3393 10.2489C29.4368 8.46913 31.1327 7.33264 33.045 7.33264C34.9574 7.33264 36.6319 8.45353 37.7235 10.2041C38.0504 10.7328 38.5086 11.1679 39.0534 11.4671C39.5982 11.7663 40.2112 11.9195 40.8328 11.9117H40.8815C42.3786 11.9137 43.6691 13.1086 44.2968 14.8514Z" fill="#FDECEC"/>
<path d="M153.311 40.4972L151.799 41.4465L152.715 39.7798C152.455 39.5731 152.134 39.4586 151.803 39.4543H151.779C151.674 39.4564 151.569 39.4485 151.465 39.4309L150.955 39.7564L151.173 39.3568C150.811 39.2299 150.498 38.9926 150.278 38.6784L149.364 39.2633L149.949 38.2106C149.705 37.8974 149.395 37.6422 149.04 37.4635C148.686 37.2848 148.297 37.1871 147.9 37.1774C146.949 37.1774 146.101 37.7447 145.561 38.6258C145.398 38.8909 145.168 39.108 144.894 39.255C144.62 39.4019 144.312 39.4734 144.001 39.4621H143.95C142.9 39.4621 142.048 40.6532 142.048 42.123C142.048 43.5928 142.9 44.7839 143.95 44.7839C144.182 44.7831 144.409 44.7263 144.613 44.6182C144.971 44.4444 145.362 44.3504 145.759 44.3427C146.157 44.3349 146.551 44.4136 146.915 44.5733C147.224 44.7109 147.557 44.782 147.895 44.782C148.233 44.782 148.566 44.7109 148.875 44.5733C149.236 44.4169 149.627 44.34 150.021 44.3477C150.415 44.3554 150.802 44.4477 151.157 44.6182C151.359 44.7239 151.584 44.7794 151.812 44.78C152.863 44.78 153.715 43.5889 153.715 42.1191C153.718 41.5533 153.579 40.9957 153.311 40.4972Z" fill="#F2F2F2"/>
<path opacity="0.03" d="M150.467 44.3902C149.918 44.2869 149.35 44.3486 148.836 44.5676C148.529 44.704 148.197 44.7745 147.861 44.7742C147.525 44.7725 147.193 44.7008 146.886 44.5637C146.522 44.4039 146.127 44.3252 145.729 44.3329C145.331 44.3407 144.94 44.4347 144.582 44.6085C144.378 44.7168 144.15 44.7737 143.919 44.7742C142.986 44.7742 142.21 43.8346 142.048 42.5929C142.235 42.4567 142.393 42.286 142.516 42.0899C143.062 41.2088 143.91 40.6415 144.855 40.6415C145.8 40.6415 146.644 41.201 147.194 42.0743C147.358 42.3393 147.588 42.5571 147.861 42.7065C148.135 42.8558 148.442 42.9315 148.754 42.9262H148.779C149.51 42.9262 150.153 43.5227 150.467 44.3902Z" fill="#FDECEC"/>
<path d="M173.396 125.417C173.98 124.343 173.316 123.028 172.559 122.068C171.803 121.109 170.881 120.119 170.9 118.893C170.93 117.138 172.791 116.103 174.279 115.174C175.382 114.483 176.4 113.664 177.312 112.735C177.693 112.377 178.008 111.954 178.244 111.487C178.552 110.801 178.542 110.021 178.522 109.269C178.459 106.766 178.335 104.265 178.152 101.766" stroke="#DEDDE9" stroke-width="4" stroke-miterlimit="10"/>
<path d="M180.98 101.63C180.96 101.171 180.824 100.726 180.585 100.334C180.347 99.942 180.013 99.6167 179.616 99.3878L179.004 100.6L179.021 99.1324C178.729 99.0462 178.425 99.0099 178.121 99.0252C177.582 99.0519 177.064 99.2375 176.631 99.5587C176.197 99.8798 175.869 100.322 175.687 100.83C175.505 101.337 175.477 101.887 175.608 102.41C175.738 102.934 176.02 103.406 176.419 103.769C176.818 104.132 177.315 104.369 177.848 104.449C178.381 104.53 178.926 104.451 179.415 104.222C179.903 103.993 180.312 103.625 180.591 103.163C180.87 102.702 181.006 102.168 180.982 101.63H180.98Z" fill="#F59704"/>
<path d="M176.101 120.146C175.814 120.703 175.345 121.143 174.772 121.395C174.199 121.646 173.556 121.693 172.953 121.527C172.349 121.361 171.821 120.993 171.457 120.484C171.093 119.975 170.914 119.356 170.952 118.731C170.99 118.106 171.241 117.514 171.663 117.052C172.086 116.59 172.655 116.288 173.274 116.196C173.893 116.104 174.525 116.227 175.064 116.545C175.603 116.863 176.016 117.357 176.234 117.944L174.524 119.336L176.406 118.899C176.405 119.333 176.301 119.761 176.101 120.146Z" fill="#F59704"/>
<path d="M174.751 114.836C174.069 114.887 173.393 114.681 172.857 114.257C172.32 113.834 171.962 113.225 171.853 112.55C171.744 111.876 171.892 111.185 172.268 110.614C172.644 110.043 173.22 109.634 173.883 109.468L173.868 110.595L174.487 109.368C174.847 109.351 175.206 109.404 175.544 109.526C175.882 109.648 176.193 109.835 176.459 110.077C176.725 110.319 176.94 110.612 177.092 110.937C177.245 111.263 177.331 111.616 177.347 111.975C177.363 112.29 177.323 112.606 177.23 112.908C177.065 113.445 176.738 113.918 176.294 114.263C175.851 114.608 175.312 114.808 174.751 114.836Z" fill="#F59704"/>
<path d="M181.392 110.415C180.668 110.45 179.961 110.195 179.425 109.707C178.889 109.219 178.568 108.539 178.534 107.815C178.5 107.091 178.755 106.383 179.243 105.848C179.73 105.312 180.411 104.991 181.135 104.957C181.646 104.932 182.155 105.052 182.601 105.304L182.117 106.628L183.113 105.675C183.646 106.162 183.963 106.841 183.996 107.562C184.009 107.815 183.986 108.069 183.928 108.316C183.792 108.894 183.47 109.412 183.012 109.791C182.555 110.17 181.986 110.389 181.392 110.415Z" fill="#F59704"/>
<path opacity="0.1" d="M180.612 102.358C179.981 102.429 179.367 102.625 178.733 102.664C178.099 102.703 177.403 102.551 177.002 102.058C176.787 101.793 176.678 101.458 176.497 101.167C176.324 100.898 176.087 100.676 175.807 100.52C175.642 100.865 175.551 101.241 175.54 101.624C175.529 102.007 175.599 102.387 175.745 102.741C175.891 103.095 176.11 103.414 176.387 103.678C176.665 103.941 176.995 104.144 177.355 104.272C177.716 104.4 178.1 104.451 178.481 104.421C178.863 104.391 179.234 104.281 179.57 104.098C179.907 103.916 180.201 103.664 180.434 103.36C180.667 103.057 180.833 102.707 180.922 102.335C180.819 102.341 180.715 102.347 180.612 102.358Z" fill="#FDECEC"/>
<path opacity="0.1" d="M181.392 110.415C180.92 110.439 180.45 110.34 180.028 110.128C179.606 109.916 179.246 109.598 178.984 109.205C178.721 108.812 178.566 108.357 178.532 107.886C178.497 107.415 178.586 106.943 178.789 106.516C179.007 106.662 179.194 106.85 179.339 107.068C179.534 107.362 179.653 107.702 179.881 107.971C180.308 108.474 181.035 108.637 181.696 108.606C182.357 108.575 182.994 108.39 183.645 108.329C183.737 108.32 183.829 108.314 183.922 108.312C183.787 108.89 183.466 109.408 183.01 109.788C182.553 110.167 181.985 110.388 181.392 110.415Z" fill="#FDECEC"/>
<path opacity="0.1" d="M174.75 114.836C174.283 114.86 173.817 114.763 173.397 114.555C172.978 114.347 172.619 114.035 172.355 113.648C172.092 113.261 171.932 112.813 171.892 112.346C171.851 111.88 171.931 111.411 172.125 110.984C172.353 111.131 172.551 111.319 172.709 111.54C172.922 111.84 173.055 112.185 173.294 112.462C173.756 112.976 174.532 113.156 175.23 113.14C175.928 113.125 176.561 112.959 177.234 112.908C177.068 113.446 176.741 113.919 176.296 114.264C175.852 114.609 175.312 114.809 174.75 114.836Z" fill="#FDECEC"/>
<path opacity="0.1" d="M176.101 120.146C175.955 120.474 175.745 120.769 175.485 121.016C175.224 121.262 174.917 121.455 174.582 121.583C174.247 121.711 173.889 121.772 173.531 121.762C173.172 121.752 172.819 121.671 172.491 121.525C172.164 121.378 171.868 121.168 171.622 120.908C171.375 120.647 171.182 120.34 171.054 120.005C170.926 119.67 170.866 119.312 170.876 118.954C170.886 118.595 170.966 118.242 171.113 117.914C171.338 118.063 171.541 118.243 171.713 118.45C171.975 118.768 172.146 119.127 172.446 119.425C173.006 119.973 173.908 120.205 174.714 120.22C175.177 120.223 175.641 120.199 176.101 120.146Z" fill="#FDECEC"/>
<path d="M169.269 124.182C169.269 124.182 171.429 124.114 172.08 123.652C172.731 123.19 175.394 122.634 175.561 123.377C175.729 124.119 178.807 127.08 176.368 127.094C173.93 127.108 170.715 126.704 170.054 126.314C169.394 125.924 169.269 124.182 169.269 124.182Z" fill="#C3C0ED"/>
<path opacity="0.2" d="M176.413 126.829C173.975 126.848 170.748 126.449 170.099 126.049C169.604 125.749 169.407 124.667 169.341 124.168H169.269C169.269 124.168 169.405 125.909 170.049 126.312C170.692 126.716 173.926 127.108 176.363 127.092C177.066 127.092 177.31 126.835 177.296 126.464C177.205 126.691 176.945 126.829 176.413 126.829Z" fill="#FDECEC"/>
<path d="M119.203 101.75C119.203 105.006 120.872 105.197 123.654 107.643C126.435 110.09 128.102 105.006 128.102 101.75C128.102 98.4949 126.11 95.8554 123.654 95.8554C121.197 95.8554 119.203 98.4949 119.203 101.75Z" fill="#915766"/>
<path d="M90.8067 72.502C90.5435 73.1394 90.908 73.8919 91.4519 74.3129C91.9958 74.734 92.6839 74.9153 93.3369 75.1336C96.261 76.1083 98.8771 78.1434 100.323 80.8686C101.77 83.5939 101.963 87.015 100.593 89.7812C99.8615 91.2568 98.7289 92.5103 98.0583 94.0093C96.7094 96.9919 97.3936 100.651 99.3313 103.29C101.269 105.93 105.064 106.439 108.232 107.257C108.232 107.257 116.419 113.69 119.343 111.936" stroke="#DEDDE9" stroke-miterlimit="10"/>
<path d="M97.8929 122.852C97.8929 122.852 97.503 126.166 99.2574 126.361C100.113 126.438 100.972 126.466 101.831 126.445C102.328 126.439 102.815 126.301 103.242 126.044C103.668 125.788 104.019 125.423 104.259 124.987C104.498 124.551 104.617 124.059 104.604 123.562C104.591 123.064 104.446 122.579 104.183 122.156L104.131 122.074C102.376 119.343 97.8929 122.852 97.8929 122.852Z" fill="#915766"/>
<path d="M98.8676 120.123C98.8676 120.123 103.156 125.776 109.589 120.708C116.022 115.639 108.225 113.3 108.225 113.3H100.037L95.1638 115.444L98.8676 120.123Z" fill="#B56D7E"/>
<path d="M116.412 115.445C116.412 115.445 118.361 117.784 120.116 117.589C121.523 117.433 124.311 118.782 123.849 121.234C123.784 121.595 123.649 121.939 123.451 122.247C123.253 122.555 122.996 122.82 122.695 123.028C122.394 123.236 122.054 123.383 121.696 123.459C121.338 123.535 120.969 123.54 120.609 123.472C120.235 123.401 119.886 123.235 119.594 122.99C119.303 122.745 119.08 122.429 118.946 122.072C118.946 122.072 112.708 122.462 112.903 120.708C113.098 118.953 116.412 115.445 116.412 115.445Z" fill="#915766"/>
<path d="M100.335 116.517C100.335 116.517 102.869 120.415 100.335 122.949C97.801 125.484 95.0719 125.874 95.0719 125.874C95.0719 125.874 96.0466 127.628 92.3428 127.433C88.639 127.238 87.4694 126.068 88.639 124.314C89.8086 122.56 92.7327 120.61 92.1478 119.246C91.563 117.881 90.7833 114.957 91.9529 113.203C91.4814 112.812 91.0679 112.357 90.7248 111.85C89.6897 110.275 91.7619 108.501 93.1947 109.727L94.2921 110.668C94.2921 110.668 97.6061 107.939 104.819 109.304C104.819 109.304 107.743 109.109 108.328 106.965C108.328 106.965 105.209 100.142 113.396 95.0735C114.868 94.4345 116.475 94.1667 118.074 94.2938C120.804 94.4887 123.728 94.6836 125.677 98.9722C125.677 98.9722 127.27 101.896 129.141 103.023C129.646 103.337 130.076 103.756 130.404 104.252C130.731 104.748 130.947 105.309 131.038 105.896C131.601 109.255 130.888 114.596 119.439 111.838C119.439 111.838 118.562 118.953 113.104 121.877C113.104 121.877 112.714 123.827 113.104 124.412C113.493 124.996 115.443 127.725 112.324 127.53C110.764 127.435 109.562 127.433 108.733 127.458C108.379 127.469 108.028 127.384 107.719 127.21C107.41 127.037 107.154 126.783 106.979 126.475C106.803 126.167 106.715 125.817 106.724 125.463C106.732 125.108 106.837 124.763 107.027 124.464C107.037 124.447 107.049 124.429 107.061 124.412C107.072 124.394 107.645 121.682 105.696 119.538L105.306 117.199L100.335 116.517Z" fill="#9C5E6D"/>
<path d="M127.815 106.187C129.215 106.187 130.35 105.751 130.35 105.212C130.35 104.674 129.215 104.238 127.815 104.238C126.416 104.238 125.281 104.674 125.281 105.212C125.281 105.751 126.416 106.187 127.815 106.187Z" fill="#915766"/>
<path d="M61.1334 108.598C60.557 108.92 59.9488 109.182 59.3185 109.378C58.1918 109.686 56.9793 109.573 55.8467 109.836C55.3808 109.943 54.872 110.17 54.7258 110.616C54.6166 110.949 54.7258 111.31 54.8486 111.643C56.1059 115.332 56.8642 119.246 58.8721 122.593C59.7157 123.996 60.7629 125.267 61.9794 126.363C62.4355 126.774 62.9541 127.178 63.5623 127.242C63.8439 127.272 64.1283 127.227 64.3869 127.111C64.6455 126.996 64.8691 126.815 65.0352 126.585C65.2013 126.356 65.3039 126.087 65.3328 125.805C65.3617 125.524 65.3158 125.239 65.1998 124.981C65.0185 124.591 64.6851 124.271 64.4687 123.889C64.2036 123.421 64.1315 122.872 64.0652 122.33C63.8703 120.753 63.6753 119.104 64.2231 117.608C64.5896 116.606 65.2621 115.753 65.8216 114.846C66.3811 113.94 66.8489 112.897 66.7242 111.838C66.6384 111.115 66.2856 110.454 65.9132 109.828C65.5409 109.203 64.8021 107.517 64.0516 107.308C63.3011 107.099 61.8137 108.249 61.1334 108.598Z" fill="white"/>
<path d="M81.6564 121.343C81.6679 121.701 81.6185 122.057 81.5102 122.398C81.2743 123.018 80.6915 123.443 80.3913 124.034C79.9721 124.854 80.1632 125.848 80.44 126.728C80.6135 127.279 80.8416 127.852 81.3075 128.193C81.6856 128.468 82.1671 128.552 82.6291 128.616C86.6351 129.17 90.7015 128.852 94.7425 128.969C95.4794 128.991 96.2591 129.016 96.9024 128.655C97.5457 128.295 97.9434 127.39 97.5048 126.798C97.1149 126.266 96.3351 126.271 95.6763 126.238C93.955 126.152 92.3158 125.477 91.0329 124.326C90.7795 124.11 90.56 123.858 90.3818 123.577C90.2437 123.329 90.1295 123.068 90.0406 122.798C89.4735 121.264 88.7993 119.771 88.023 118.332C87.8067 117.928 87.561 117.509 87.1556 117.293C86.8603 117.159 86.5401 117.089 86.216 117.088C85.2082 117.022 82.5999 116.679 81.8221 117.462C81.1028 118.183 81.672 120.425 81.6564 121.343Z" fill="white"/>
<path d="M87.8533 31.916C91.4061 31.916 94.2862 29.0359 94.2862 25.4831C94.2862 21.9303 91.4061 19.0502 87.8533 19.0502C84.3005 19.0502 81.4204 21.9303 81.4204 25.4831C81.4204 29.0359 84.3005 31.916 87.8533 31.916Z" fill="#FBBEBE"/>
<path d="M82.0443 30.7931C81.6544 31.8184 81.0131 32.7795 80.0696 33.3273L88.9665 35.1421C88.6427 33.8438 88.6002 32.4913 88.8417 31.1752C88.9283 30.8577 88.9463 30.5254 88.8944 30.2005C88.7267 29.5552 87.9996 29.2433 87.3505 29.0952C85.7267 28.7248 84.29 28.526 82.7812 27.8105C82.3211 28.6 82.3854 29.8827 82.0443 30.7931Z" fill="#FBBEBE"/>
<path d="M79.9933 30.92C80.9507 30.4874 81.9936 30.2771 83.0439 30.3048C84.0941 30.3325 85.1245 30.5975 86.0578 31.0799C87.1982 31.6803 88.1436 32.5887 89.0715 33.4835C89.9273 34.308 90.8396 35.2535 90.9 36.4406C90.9293 37.0157 90.7499 37.5771 90.6583 38.1463C90.496 39.3222 90.7034 40.5194 91.2517 41.5721C91.8001 42.6248 92.6623 43.4809 93.7188 44.0217C94.4245 45.1914 94.5707 46.6261 94.5824 48.0004C94.6233 53.2033 92.982 58.4705 94.1535 63.5408C94.4284 64.7299 94.8553 65.88 95.0931 67.0808C95.4011 68.6403 95.3855 70.2291 95.5473 71.8041C95.7216 73.5088 96.1026 75.1858 96.6819 76.7984C96.292 77.4144 95.4889 77.6503 94.7637 77.5996C94.0385 77.5489 93.3582 77.2351 92.711 76.9037C89.5764 75.2994 86.703 73.1843 83.4554 71.8197C81.3111 70.9172 79.0186 70.3558 76.9348 69.3129C74.8509 68.2699 72.9113 66.6169 72.2738 64.3771C71.999 63.4024 71.9814 62.3867 71.9658 61.3789C71.9034 57.1351 71.845 52.8446 72.769 48.708C73.5818 45.0549 75.153 41.5616 75.4981 37.8344C75.6092 36.62 75.6111 35.3217 76.2895 34.31C77.2447 32.8694 79.313 32.5049 79.9933 30.92Z" fill="#3F3D56"/>
<path d="M84.1943 25.5728C84.5744 25.0776 85.3055 25.0114 85.9117 25.1576C86.518 25.3038 87.0813 25.6157 87.6856 25.7424C87.8249 25.7816 87.9708 25.7914 88.1141 25.7713C88.2574 25.7512 88.3949 25.7015 88.518 25.6254C88.7539 25.4441 88.826 25.1264 88.8767 24.832C89.0906 23.5577 89.1404 22.2612 89.0248 20.9742C88.9932 20.7934 89.0052 20.6076 89.0599 20.4323C89.212 20.0678 89.674 19.98 90.0502 19.8631C90.6727 19.6531 91.2075 19.2416 91.5701 18.6937C91.9326 18.1458 92.1023 17.4927 92.0522 16.8377C92.0435 16.5231 91.9111 16.2247 91.6838 16.0072C91.4226 15.7947 91.058 15.7811 90.7208 15.7772C88.9924 15.7642 87.2633 15.7642 85.5335 15.7772C84.8941 15.7772 84.2216 15.7986 83.666 16.1183C83.2567 16.3542 82.9506 16.7324 82.5822 17.0306C81.6231 17.8104 80.3229 17.9624 79.1552 18.3601C78.5845 18.5227 78.0664 18.8319 77.6522 19.2568C77.2624 19.7013 77.0772 20.3602 77.3208 20.8982C77.4465 21.122 77.5865 21.3376 77.7399 21.5434C78.43 22.6448 77.97 24.0776 78.0733 25.37C78.2019 26.988 80.5958 29.6138 82.2196 29.9959C84.8415 30.608 83.3268 26.6313 84.1943 25.5728Z" fill="#3F3D56"/>
<path d="M80.5627 96.5184C80.7284 97.6998 80.9408 98.8869 80.8843 100.078C80.8044 101.741 80.2059 103.345 80.0948 105.006C80.011 106.248 80.204 107.503 80.0305 108.735C79.9194 109.515 79.664 110.283 79.5042 111.074C79.2537 112.344 79.2616 113.652 79.5276 114.918C79.7935 116.185 80.3119 117.385 81.052 118.447C81.1603 118.629 81.3149 118.78 81.5003 118.884C81.6784 118.949 81.8688 118.974 82.0578 118.958C83.9304 118.918 85.7979 118.748 87.6467 118.447C87.7 118.453 87.7542 118.449 87.8057 118.433C87.8572 118.418 87.905 118.392 87.946 118.357C87.987 118.322 88.0204 118.28 88.044 118.231C88.0677 118.183 88.081 118.13 88.0833 118.077C88.4264 116.322 87.6447 114.548 87.4459 112.764C87.2334 110.86 87.6896 108.952 88.1438 107.088C88.3492 106.17 88.6063 105.264 88.9138 104.374C89.1321 103.774 89.3972 103.193 89.5882 102.583C89.857 101.629 90.0211 100.648 90.0775 99.6589C90.2075 98.0994 90.277 96.5301 90.2861 94.9511C90.2861 93.4618 90.2432 91.9628 89.9177 90.5085C89.5005 88.6586 88.6467 86.9392 87.7987 85.2452C87.3406 85.3174 86.941 85.5844 86.5531 85.8301C85.4616 86.536 84.3224 87.1653 83.1436 87.7131C82.3522 88.0796 80.8044 88.3408 80.3053 89.1089C79.8063 89.8769 80.1299 91.4052 80.1669 92.2396C80.2332 93.6724 80.3658 95.1013 80.5627 96.5184Z" fill="#3F3D56"/>
<path opacity="0.1" d="M80.5627 96.5184C80.7284 97.6998 80.9408 98.8869 80.8843 100.078C80.8044 101.741 80.2059 103.345 80.0948 105.006C80.011 106.248 80.204 107.503 80.0305 108.735C79.9194 109.515 79.664 110.283 79.5042 111.074C79.2537 112.344 79.2616 113.652 79.5276 114.918C79.7935 116.185 80.3119 117.385 81.052 118.447C81.1603 118.629 81.3149 118.78 81.5003 118.884C81.6784 118.949 81.8688 118.974 82.0578 118.958C83.9304 118.918 85.7979 118.748 87.6467 118.447C87.7 118.453 87.7542 118.449 87.8057 118.433C87.8572 118.418 87.905 118.392 87.946 118.357C87.987 118.322 88.0204 118.28 88.044 118.231C88.0677 118.183 88.081 118.13 88.0833 118.077C88.4264 116.322 87.6447 114.548 87.4459 112.764C87.2334 110.86 87.6896 108.952 88.1438 107.088C88.3492 106.17 88.6063 105.264 88.9138 104.374C89.1321 103.774 89.3972 103.193 89.5882 102.583C89.857 101.629 90.0211 100.648 90.0775 99.6589C90.2075 98.0994 90.277 96.5301 90.2861 94.9511C90.2861 93.4618 90.2432 91.9628 89.9177 90.5085C89.5005 88.6586 88.6467 86.9392 87.7987 85.2452C87.3406 85.3174 86.941 85.5844 86.5531 85.8301C85.4616 86.536 84.3224 87.1653 83.1436 87.7131C82.3522 88.0796 80.8044 88.3408 80.3053 89.1089C79.8063 89.8769 80.1299 91.4052 80.1669 92.2396C80.2332 93.6724 80.3658 95.1013 80.5627 96.5184Z" fill="#FDECEC"/>
<path d="M71.8745 71.2838C71.0207 73.584 72.2761 76.0695 73.3677 78.2664C76.0462 83.6798 77.9176 89.4577 79.7695 95.2103C79.9079 95.6411 80.0482 96.1109 79.8923 96.5359C79.7592 96.8383 79.542 97.0961 79.2665 97.2786C77.9858 98.2533 76.3561 98.5983 74.8317 99.1071C73.358 99.5991 71.9463 100.261 70.625 101.078C69.5216 101.762 68.4807 102.554 67.4534 103.343L64.1648 105.854C63.9514 105.997 63.7652 106.177 63.615 106.386C63.2973 106.883 63.4201 107.532 63.5858 108.101C64.0035 109.607 64.542 111.076 65.196 112.495C65.3324 112.794 65.4923 113.106 65.7808 113.261C66.2954 113.536 66.9231 113.172 67.3149 112.739C67.7068 112.306 68.046 111.764 68.5976 111.587C69.1493 111.41 69.7575 111.626 70.3326 111.546C71.2663 111.413 71.8921 110.556 72.5568 109.897C75.3015 107.203 79.8845 107.398 82.906 105.023C83.3661 104.661 83.7852 104.244 84.2881 103.942C84.791 103.639 85.3778 103.476 85.908 103.209C87.5182 102.398 88.5319 100.719 89.0738 98.9999C89.6157 97.2805 89.7717 95.4637 90.1616 93.7015C90.3565 92.7911 90.6274 91.8905 90.7171 90.9724C90.7749 90.1089 90.7567 89.242 90.6625 88.3817L89.5728 74.9018C89.4832 73.8043 89.3954 72.7068 89.222 71.619C85.986 71.7341 82.752 71.8647 79.5141 71.9037C76.9429 71.9173 74.3112 72.0986 71.8745 71.2838Z" fill="#3F3D56"/>
<path d="M70.6775 74.4359C71.1161 75.1435 72.1844 75.1279 72.9193 74.7419C73.6542 74.356 74.2273 73.7029 74.9642 73.3209C75.9564 72.8043 77.128 72.8238 78.245 72.8549C80.0131 72.9056 81.8026 72.9583 83.5083 73.4398C85.2627 73.9407 86.9801 74.9057 88.8008 74.7127C89.1166 74.6796 89.4636 74.5879 89.6351 74.3228C89.7351 74.1285 89.7828 73.9115 89.7736 73.6932L89.832 72.1025C89.8679 71.8282 89.8239 71.5493 89.7053 71.2994C89.5531 71.0906 89.344 70.9302 89.103 70.8374C86.5123 69.5839 83.5609 69.35 80.6856 69.2506C79.2236 69.2025 77.7609 69.1823 76.2976 69.1901C75.0578 69.1901 73.5684 69.0186 72.3598 69.35C70.736 69.7964 69.8549 73.1162 70.6775 74.4359Z" fill="#3F3D56"/>
<path d="M86.937 32.809C83.5432 32.7798 80.469 30.54 77.0771 30.4854C76.6668 30.4579 76.2558 30.5287 75.8783 30.692C75.4065 30.9298 75.0985 31.3899 74.7359 31.7798C73.734 32.8656 72.2797 33.4465 71.2505 34.5089C70.2758 35.5031 69.7455 36.9826 70.1276 38.316C70.5097 39.6494 71.9483 40.6708 73.2973 40.3511C73.8408 38.5924 74.9626 37.0688 76.4806 36.0274C77.2698 35.5199 78.1022 35.0829 78.968 34.7214C80.4944 34.0293 82.1981 33.3256 83.7908 33.8442C84.378 34.0655 84.9317 34.3673 85.436 34.7409L88.0891 36.5226C87.7811 35.3023 87.5024 33.9338 86.937 32.809Z" fill="#F59704"/>
<path d="M72.9075 39.1698C72.4572 39.7312 73.1024 40.546 73.0069 41.2595C72.9406 41.7332 72.5507 42.0958 72.387 42.5461C72.2232 42.9964 72.309 43.5208 72.2447 44.0198C72.1805 44.3775 72.086 44.729 71.962 45.0705C71.6759 46.0916 71.4764 47.1349 71.3655 48.1895L70.7709 52.6263C70.6652 53.2929 70.6001 53.9654 70.576 54.64C70.576 55.1449 70.6072 55.6595 70.4746 56.1468C70.3421 56.6342 70.0536 57.0572 69.8567 57.5114C69.6598 57.9656 69.5701 58.5329 69.8353 58.9598C68.9483 59.6966 68.6851 61.147 69.305 62.1197C69.4233 62.271 69.5155 62.441 69.5779 62.6226C69.6124 62.8761 69.5703 63.1341 69.4571 63.3634L68.8567 64.9638C68.7027 65.3732 68.6617 65.997 69.0828 66.0906C68.7283 66.458 68.4524 66.8938 68.2719 67.3713C68.1838 67.6109 68.1574 67.8688 68.1952 68.1212C68.2331 68.3737 68.3338 68.6125 68.4882 68.8158C68.6367 68.9473 68.7636 69.1012 68.8645 69.2719C68.9561 69.4981 68.8762 69.7534 68.8196 69.9913C68.7298 70.3407 68.7125 70.7049 68.7688 71.0613C68.8252 71.4176 68.9539 71.7587 69.1471 72.0634C69.3469 72.3645 69.6302 72.6006 69.9623 72.7429C70.2944 72.8853 70.6608 72.9276 71.0166 72.8646C72.2174 72.5937 73.2973 72.1668 74.5079 72.389C77.1161 72.8666 79.7322 73.3481 82.2586 74.1551C85.1398 75.0752 87.9312 76.4242 90.945 76.7068C91.1443 76.7494 91.3523 76.7175 91.5298 76.6172C91.6831 76.4718 91.7787 76.2758 91.7988 76.0655L92.7325 71.7009C93.108 70.0876 93.3937 68.4548 93.5883 66.8099C93.6955 65.7494 93.7248 64.6812 93.756 63.6149L93.9957 55.1273C94.1107 53.8766 93.9456 52.616 93.5123 51.4372L92.1321 47.0316C91.3524 44.5169 89.5375 42.2868 88.8942 39.7312C88.4868 38.1132 88.1866 36.3783 87.093 35.117C85.5335 33.3197 82.8434 33.041 80.4866 33.349C79.4203 33.4893 78.3423 33.7388 77.4261 34.2827C76.3598 34.9202 75.5761 35.926 74.8159 36.9105C74.1843 37.7195 73.5468 38.3705 72.9075 39.1698Z" fill="#F59704"/>
<path d="M78.4125 64.1351C78.6074 64.9734 79.0149 65.7453 79.2644 66.5679C79.6815 67.9462 79.6543 69.4316 80.0636 70.8098C80.2391 71.3946 80.4944 71.9443 80.6192 72.535C80.9136 73.9151 80.4847 75.3401 79.9525 76.6462C79.4203 77.9523 78.7731 79.2388 78.5997 80.6385C78.4788 81.6229 78.6542 82.736 79.4125 83.3676C80.202 84.0323 81.3463 83.9875 82.3736 83.8978C82.7426 83.8875 83.1068 83.8122 83.4497 83.6756C84.2294 83.3033 84.5647 82.3734 84.7499 81.5313C85.364 78.6852 85.1885 75.7358 85.0092 72.8293L84.5452 65.2287C84.4556 63.7667 84.3503 62.2735 83.9078 60.868C83.744 60.3573 83.4594 59.3241 82.9916 58.9966C82.5237 58.6691 81.2099 58.6594 80.6367 58.6321C77.9466 58.5073 77.9778 62.2559 78.4125 64.1351Z" fill="#FBBEBE"/>
<path d="M81.3873 36.0722C80.8395 35.7857 80.1494 35.9085 79.6192 36.2301C79.089 36.5518 78.6855 37.0372 78.2917 37.5167C77.1065 38.9631 75.853 40.624 76.0285 42.4856C76.0948 43.1835 76.3618 43.8502 76.5431 44.5227C77.3365 47.4916 76.4593 50.634 76.5587 53.7082C76.6172 55.484 77.0032 57.2307 77.3891 58.9715C77.4671 59.3243 77.5841 59.7337 77.935 59.8545C78.1923 59.9422 78.471 59.8272 78.7147 59.7317C79.6632 59.3811 80.6821 59.264 81.6854 59.3902C82.6887 59.5164 83.6469 59.8823 84.479 60.4569C85.1164 60.1177 84.8689 59.0455 84.7344 58.3379C84.3113 56.2384 84.8864 54.0727 85.5843 52.0473C86.2822 50.0219 87.1184 48.0004 87.2354 45.862C87.366 43.4369 86.5629 41.0724 85.7695 38.7779C85.596 38.277 85.4069 37.7526 85.0053 37.4134C84.6619 37.1588 84.2687 36.9794 83.8513 36.8871C83.0189 36.6239 82.1651 36.4796 81.3873 36.0722Z" fill="#3F3D56"/>
<path d="M108.224 107.257C108.224 107.257 114.072 113.69 119.336 111.936" stroke="#DEDDE9" stroke-miterlimit="10"/>
<path d="M115.304 101.75C115.304 105.006 113.638 105.197 110.856 107.643C108.074 110.09 106.407 105.006 106.407 101.75C106.407 98.4949 108.4 95.8554 110.856 95.8554C113.312 95.8554 115.304 98.4949 115.304 101.75Z" fill="#915766"/>
<path d="M17.0971 104.764C17.5235 104.02 17.7436 103.177 17.7346 102.319C17.7346 100.111 16.37 98.3213 14.678 98.3213C12.9859 98.3213 11.6233 100.111 11.6233 102.319C11.6143 103.177 11.8344 104.02 12.2608 104.764C11.8428 105.511 11.6233 106.353 11.6233 107.208C11.6233 108.064 11.8428 108.906 12.2608 109.653C11.8428 110.4 11.6233 111.242 11.6233 112.097C11.6233 112.953 11.8428 113.795 12.2608 114.542C11.8428 115.289 11.6233 116.131 11.6233 116.986C11.6233 117.842 11.8428 118.684 12.2608 119.431C11.8347 120.175 11.6146 121.018 11.6233 121.876C11.6233 124.084 12.9879 125.876 14.678 125.876C16.3681 125.876 17.7346 124.084 17.7346 121.876C17.7433 121.018 17.5232 120.175 17.0971 119.431C17.5141 118.685 17.7329 117.844 17.7329 116.989C17.7329 116.135 17.5141 115.294 17.0971 114.548C17.5151 113.801 17.7346 112.959 17.7346 112.103C17.7346 111.247 17.5151 110.406 17.0971 109.659C17.5151 108.912 17.7346 108.07 17.7346 107.214C17.7346 106.358 17.5151 105.517 17.0971 104.77V104.764Z" fill="#3F3D56"/>
<path d="M14.6701 101.432C16.3572 101.432 17.7248 99.6415 17.7248 97.4323C17.7248 95.2231 16.3572 93.4322 14.6701 93.4322C12.9831 93.4322 11.6155 95.2231 11.6155 97.4323C11.6155 99.6415 12.9831 101.432 14.6701 101.432Z" fill="#3F3D56"/>
<path d="M14.6701 96.5435C16.3572 96.5435 17.7248 94.7526 17.7248 92.5434C17.7248 90.3342 16.3572 88.5433 14.6701 88.5433C12.9831 88.5433 11.6155 90.3342 11.6155 92.5434C11.6155 94.7526 12.9831 96.5435 14.6701 96.5435Z" fill="#3F3D56"/>
<path d="M3.23323 59.0884C2.81618 58.5567 2.43582 57.9972 2.0948 57.4138L10.1242 56.0941L1.43981 56.1585C0.607601 54.3466 0.153655 52.384 0.105725 50.3907C0.0577956 48.3974 0.416888 46.4153 1.16105 44.5656L12.8085 50.6086L2.06751 42.7078C3.07277 40.9667 4.42596 39.4514 6.04269 38.2563C7.65943 37.0613 9.50504 36.2122 11.4644 35.7619C13.4238 35.3116 15.455 35.2698 17.4312 35.6392C19.4075 36.0085 21.2864 36.7811 22.9509 37.9086C24.6154 39.0362 26.0298 40.4946 27.1058 42.1929C28.1817 43.8912 28.8963 45.793 29.2049 47.7796C29.5134 49.7662 29.4094 51.7952 28.8992 53.7398C28.3891 55.6845 27.4837 57.5032 26.2397 59.0825C26.8911 59.9088 27.4507 60.8037 27.9083 61.7512L17.487 67.1782L28.5984 63.4491C29.3784 65.7558 29.5711 68.2207 29.1589 70.6206C28.7467 73.0205 27.7427 75.2798 26.2377 77.1941C27.9366 79.3528 28.9936 81.9459 29.288 84.6771C29.5824 87.4083 29.1022 90.1671 27.9024 92.6382C26.7026 95.1093 24.8315 97.1929 22.5033 98.6506C20.175 100.108 17.4834 100.881 14.7365 100.881C11.9895 100.881 9.29794 100.108 6.96966 98.6506C4.64138 97.1929 2.77033 95.1093 1.57051 92.6382C0.370676 90.1671 -0.109503 87.4083 0.18488 84.6771C0.479263 81.9459 1.53632 79.3528 3.23518 77.1941C1.20585 74.6144 0.102559 71.4274 0.102559 68.1451C0.102559 64.8629 1.20585 61.6759 3.23518 59.0962L3.23323 59.0884Z" fill="#F59704"/>
<path opacity="0.1" d="M29.3784 68.1373C29.3827 71.4202 28.2789 74.6086 26.2458 77.1862C27.9446 79.3449 29.0017 81.9381 29.2961 84.6692C29.5905 87.4004 29.1103 90.1593 27.9105 92.6304C26.7106 95.1015 24.8396 97.185 22.5113 98.6428C20.183 100.1 17.4915 100.874 14.7445 100.874C11.9975 100.874 9.306 100.1 6.97772 98.6428C4.64943 97.185 2.77839 95.1015 1.57856 92.6304C0.378732 90.1593 -0.101447 87.4004 0.192937 84.6692C0.48732 81.9381 1.54438 79.3449 3.24323 77.1862C1.27242 74.6949 29.3784 66.4939 29.3784 68.1373Z" fill="#FDECEC"/>
</svg>
