<svg width="20" height="21" viewBox="0 0 20 21" fill="none" xmlns="http://www.w3.org/2000/svg">
<path d="M19.6191 11.4037C19.3652 11.6705 19.0592 11.8039 18.7012 11.8039C18.3431 11.8039 18.0404 11.6739 17.793 11.4139L17.5 11.106V19.6863C17.5 20.0558 17.3796 20.3671 17.1387 20.6203C16.8978 20.8734 16.6016 21 16.25 21H13.75V15.7451C13.75 14.664 13.3854 13.7403 12.6562 12.974C11.9271 12.2076 11.0449 11.8245 10.0098 11.8245C8.97461 11.8245 8.09245 12.2076 7.36328 12.974C6.63411 13.7403 6.26953 14.664 6.26953 15.7451V21H3.75C3.39844 21 3.10221 20.8734 2.86133 20.6203C2.62044 20.3671 2.5 20.0558 2.5 19.6863V11.106L2.20703 11.4139C1.95964 11.6739 1.6569 11.8039 1.29883 11.8039C0.940755 11.8039 0.634766 11.6705 0.380859 11.4037C0.126953 11.1368 0 10.8152 0 10.4389C0 10.0626 0.123698 9.74441 0.371094 9.48441L9.04297 0.390989C9.30339 0.117297 9.6224 -0.0127071 10 0.000977472C10.3776 -0.0127071 10.6966 0.117297 10.957 0.390989L19.6289 9.48441C19.8763 9.74441 20 10.0626 20 10.4389C20 10.8152 19.873 11.1368 19.6191 11.4037Z" fill="#F59704"/>
</svg>
