<svg width="222" height="243" viewBox="0 0 222 243" fill="none" xmlns="http://www.w3.org/2000/svg">
<path d="M164.866 121.445C164.866 70.56 146.548 45.4569 110.589 45.4569C74.6308 45.4569 56.3123 70.56 56.3123 121.445C56.3123 172.329 74.6308 197.432 110.589 197.432C146.548 197.432 164.866 171.651 164.866 121.445ZM191.326 211.002C171.651 232.712 144.512 242.889 110.589 242.889C76.6662 242.889 49.5278 232.034 29.8524 211.002C10.177 189.291 0 159.438 0 121.445C0 83.4508 10.177 53.5985 29.8524 32.5662C49.5278 10.8554 76.6662 0 110.589 0C144.512 0 171.651 10.8554 191.326 32.5662C211.002 54.2769 221.179 83.4508 221.179 121.445C221.179 159.438 211.002 189.291 191.326 211.002Z" fill="#F59704"/>
</svg>
