<svg width="19" height="19" viewBox="0 0 19 19" fill="none" xmlns="http://www.w3.org/2000/svg">
<path d="M0.508082 5.67829C0.857659 4.55984 1.3995 3.59625 2.13362 2.7359C2.86773 1.89276 3.81159 1.22169 4.94771 0.722691C6.08384 0.240897 7.44719 0 9.02029 0C10.6283 0 12.0266 0.240897 13.1803 0.722691C14.3513 1.20448 15.3127 1.85835 16.0643 2.68428C16.8159 3.51021 17.3752 4.49101 17.7422 5.62667C18.0918 6.76232 18.2841 7.96681 18.2841 9.27453C18.2841 10.5651 18.1093 11.7695 17.7597 12.9052C17.4101 14.0409 16.8683 15.0216 16.1342 15.8648C15.4001 16.7079 14.4562 17.379 13.3026 17.8608C12.149 18.3426 10.7682 18.5835 9.17759 18.5835C7.63945 18.5835 6.29358 18.3598 5.13998 17.8952C3.98637 17.4306 3.04251 16.794 2.27344 15.968C1.50438 15.1421 0.945054 14.1613 0.560519 13.0084C0.193463 11.8556 0.00119338 10.5995 0.00119338 9.24012C-0.0162855 7.96681 0.158505 6.79674 0.508082 5.67829ZM4.80788 10.7887C4.87779 11.2361 4.98267 11.6319 5.08754 11.976C5.19242 12.3202 5.33225 12.6127 5.47208 12.8364C5.61191 13.0773 5.76922 13.2837 5.90905 13.4558C6.15375 13.7483 6.52081 14.0753 7.04517 14.4022C7.56954 14.7291 8.25121 14.9012 9.0902 14.9012C9.91171 14.9012 10.6458 14.7119 11.2751 14.3506C11.9043 13.9892 12.4112 13.4902 12.7782 12.8708C13.1103 12.3374 13.3026 11.7351 13.4075 11.0468C13.4949 10.3758 13.5473 9.73912 13.5473 9.17129C13.5473 8.99922 13.5473 8.74112 13.5298 8.41419C13.5123 8.07005 13.4599 7.6915 13.39 7.27853C13.3201 6.86556 13.1803 6.4526 13.0055 6.00522C12.8307 5.57504 12.5685 5.17929 12.2364 4.81794C11.9043 4.45659 11.4848 4.16408 10.9954 3.94039C10.4885 3.7167 9.87675 3.59625 9.12516 3.59625C7.67441 3.59625 6.59072 4.07804 5.82165 5.04163C5.07006 6.00522 4.68553 7.38177 4.68553 9.17129C4.68553 9.80795 4.73796 10.3242 4.80788 10.7887Z" fill="#F59704"/>
</svg>
