<svg width="82" height="23" viewBox="0 0 82 23" fill="none" xmlns="http://www.w3.org/2000/svg">
<path d="M0.0167171 2.76521C0.0167171 2.45253 0.0501512 2.18922 0.0835854 1.97528C0.11702 1.76133 0.183888 1.58031 0.28419 1.41574C0.384493 1.25117 0.501512 1.10305 0.668683 0.922027C0.835854 0.757457 0.986308 0.642258 1.15348 0.543516C1.32065 0.444774 1.50454 0.41186 1.72186 0.378946C1.93918 0.346032 2.22337 0.313118 2.541 0.313118C2.85862 0.296661 3.25983 0.296661 3.72791 0.296661H7.20506C8.07435 0.296661 8.94364 0.362489 9.77949 0.510602C10.6321 0.658715 11.4512 1.02077 12.2369 1.61322C13.3402 2.43607 14.1259 3.4564 14.594 4.69068C15.0621 5.92495 15.2961 7.30734 15.2961 8.80493C15.2961 9.1999 15.2794 9.69361 15.246 10.2696C15.2125 10.8456 15.0955 11.4545 14.9116 12.0963C14.7277 12.7382 14.4436 13.3964 14.0758 14.0712C13.708 14.7459 13.1731 15.3713 12.4877 15.9473C11.8691 16.4739 11.1001 16.8524 10.164 17.0993C9.22783 17.3461 8.27496 17.4613 7.27193 17.4613H3.74463C3.24311 17.4613 2.80847 17.4613 2.45741 17.4449C2.10635 17.4449 1.78873 17.3955 1.53797 17.3297C1.28722 17.2638 1.06989 17.1651 0.886005 17.017C0.702118 16.8689 0.51823 16.6714 0.334342 16.4245C0.150454 16.1612 0.0501512 15.8485 0.0334342 15.4371C0.0167171 15.0421 0 14.4826 0 13.7585V3.98303C0 3.48932 0 3.07789 0.0167171 2.76521ZM6.43608 14.0547C6.95431 14.0547 7.47254 14.0218 8.00748 13.9724C8.54243 13.9231 9.01051 13.7256 9.42843 13.3964C9.84636 13.0673 10.1974 12.5571 10.4482 11.8659C10.6989 11.1747 10.8327 10.1873 10.8327 8.92013C10.8327 7.62003 10.6989 6.63261 10.4147 5.92495C10.1473 5.2173 9.77949 4.70714 9.31141 4.378C8.86005 4.04886 8.34182 3.85137 7.74001 3.78554C7.15491 3.71972 6.53638 3.6868 5.90113 3.6868H4.44674V14.0547H6.43608Z" fill="white"/>
<path d="M17.7035 8.98573C17.9542 8.22871 18.3387 7.53752 18.8904 6.91215C19.442 6.28679 20.1442 5.77662 21.0135 5.3652C21.8827 4.95377 22.9526 4.75629 24.2064 4.75629C25.4268 4.75629 26.4632 4.95377 27.3325 5.33228C28.2018 5.71079 28.9206 6.2045 29.4723 6.81341C30.024 7.42232 30.4419 8.11351 30.7094 8.88699C30.9768 9.66047 31.0939 10.434 31.0939 11.2074C31.0939 11.9809 30.9601 12.7544 30.7094 13.5279C30.4419 14.3178 30.0407 15.009 29.4723 15.6344C28.9206 16.2597 28.2018 16.7699 27.3325 17.1649C26.4632 17.5598 25.41 17.7573 24.2064 17.7573C23.17 17.7573 22.2171 17.6092 21.3812 17.2965C20.5454 16.9838 19.8098 16.5395 19.208 15.9635C18.6062 15.3875 18.1381 14.6963 17.8205 13.8899C17.5029 13.0835 17.3357 12.1784 17.3357 11.191C17.3357 10.4669 17.4527 9.74276 17.7035 8.98573ZM21.5651 12.4088C21.6487 12.8367 21.7992 13.2152 21.9998 13.5772C22.2171 13.9228 22.5013 14.2191 22.8523 14.433C23.2034 14.6634 23.6715 14.7621 24.2231 14.7621C24.5742 14.7621 24.9253 14.6963 25.2596 14.5647C25.5939 14.433 25.8781 14.2191 26.1289 13.9228C26.3796 13.6431 26.5802 13.2646 26.7307 12.8367C26.8811 12.3923 26.9647 11.8657 26.9647 11.2733C26.9647 10.8289 26.9146 10.3846 26.8143 9.9567C26.714 9.52882 26.5468 9.15031 26.3295 8.82117C26.1122 8.49203 25.828 8.22871 25.4769 8.03123C25.1259 7.83375 24.7079 7.735 24.2231 7.735C23.7383 7.735 23.3204 7.83375 22.9693 8.03123C22.6183 8.22871 22.3341 8.49203 22.1001 8.80471C21.866 9.11739 21.6989 9.4959 21.5985 9.90733C21.4982 10.3188 21.4481 10.7466 21.4481 11.1745C21.4481 11.5695 21.4815 11.9809 21.5651 12.4088Z" fill="white"/>
<path d="M33.484 5.43075C33.8183 4.36104 34.3366 3.43945 35.0387 2.6166C35.7408 1.81021 36.6435 1.16839 37.7301 0.691133C38.8167 0.230337 40.1207 -6.10352e-05 41.6252 -6.10352e-05C43.1632 -6.10352e-05 44.5005 0.230337 45.6039 0.691133C46.7239 1.15193 47.6433 1.77729 48.3622 2.56723C49.081 3.35717 49.616 4.29522 49.967 5.38138C50.3014 6.46754 50.4853 7.61953 50.4853 8.87026C50.4853 10.1045 50.3181 11.2565 49.9837 12.3427C49.6494 13.4288 49.1312 14.3669 48.4291 15.1733C47.7269 15.9797 46.8242 16.6215 45.7209 17.0823C44.6176 17.5431 43.2969 17.7735 41.7757 17.7735C40.3046 17.7735 39.0173 17.5596 37.914 17.1152C36.8107 16.6709 35.908 16.062 35.1724 15.272C34.4369 14.4821 33.9019 13.544 33.5341 12.4414C33.1831 11.3388 32.9992 10.1374 32.9992 8.83735C32.9825 7.61953 33.1496 6.50045 33.484 5.43075ZM37.5964 10.3185C37.6633 10.7464 37.7636 11.1249 37.8639 11.454C37.9642 11.7831 38.0979 12.0629 38.2316 12.2769C38.3654 12.5073 38.5158 12.7047 38.6496 12.8693C38.8836 13.1491 39.2347 13.4618 39.7362 13.7744C40.2377 14.0871 40.8896 14.2517 41.6921 14.2517C42.4778 14.2517 43.1799 14.0707 43.7817 13.7251C44.3835 13.3795 44.8683 12.9022 45.2194 12.3098C45.537 11.7996 45.7209 11.2236 45.8212 10.5653C45.9048 9.92351 45.9549 9.3146 45.9549 8.77152C45.9549 8.60695 45.9549 8.36009 45.9382 8.04741C45.9215 7.71827 45.8713 7.35622 45.8045 6.96125C45.7376 6.56628 45.6039 6.17131 45.4367 5.74343C45.2695 5.33201 45.0188 4.9535 44.7011 4.6079C44.3835 4.2623 43.9823 3.98253 43.5142 3.76859C43.0294 3.55465 42.4443 3.43945 41.7255 3.43945C40.338 3.43945 39.3015 3.90025 38.566 4.82184C37.8471 5.74343 37.4794 7.05999 37.4794 8.77152C37.4794 9.38043 37.5295 9.87414 37.5964 10.3185Z" fill="#F59704"/>
<path d="M65.264 18.8104C65.1135 19.6004 64.7959 20.2751 64.3278 20.8182C63.8598 21.3613 63.1911 21.7727 62.3218 22.0689C61.4692 22.3652 60.3325 22.4968 58.9449 22.4968C58.0589 22.4968 57.2231 22.431 56.4374 22.2993C55.635 22.1677 54.8994 21.9044 54.214 21.5094C53.8797 21.3119 53.6122 21.1309 53.4116 20.9334C53.211 20.7359 53.0605 20.5549 52.9602 20.3739C52.8599 20.1928 52.7931 20.0118 52.7596 19.8637C52.7262 19.7156 52.7262 19.5675 52.7262 19.4358C52.7262 18.9256 52.9101 18.5307 53.2779 18.2674C53.6456 17.9876 54.0301 17.8559 54.4648 17.8559C54.9161 17.8559 55.2839 17.9711 55.5848 18.1851C55.8857 18.4155 56.1866 18.6952 56.5042 19.0244C56.7717 19.2877 57.0559 19.4687 57.3903 19.5839C57.7079 19.6991 58.1592 19.765 58.7276 19.765C59.3629 19.765 59.8644 19.6991 60.2154 19.5675C60.5665 19.4358 60.834 19.2383 61.0011 18.975C61.1683 18.7117 61.2686 18.399 61.302 18.0205C61.3355 17.642 61.3522 17.1977 61.3856 16.7204C61.4024 16.4077 61.4023 16.1444 61.4023 15.9634C61.4023 15.7824 61.3856 15.5849 61.3689 15.4039C61.2686 15.5355 61.1349 15.7001 60.9343 15.914C60.7504 16.128 60.4996 16.3419 60.1987 16.5558C59.8978 16.7698 59.53 16.9344 59.0954 17.0825C58.6607 17.2306 58.1592 17.2964 57.5909 17.2964C56.7717 17.2964 56.0529 17.1318 55.4176 16.8192C54.7824 16.5065 54.2474 16.0457 53.7794 15.4697C53.328 14.8937 52.9769 14.2189 52.7429 13.429C52.5089 12.6391 52.3918 11.7833 52.3918 10.8453C52.3918 10.2034 52.4253 9.66036 52.5089 9.1831C52.5925 8.72231 52.6928 8.31088 52.8265 7.96529C52.9602 7.61969 53.094 7.32346 53.2611 7.07661C53.4283 6.82975 53.5788 6.63227 53.7459 6.45124C54.749 5.31571 56.0362 4.75617 57.5909 4.75617C58.1927 4.75617 58.7276 4.83846 59.179 5.00303C59.6471 5.1676 60.0316 5.36508 60.3659 5.59548C60.6835 5.82588 60.951 6.05628 61.1516 6.28667C61.3522 6.53353 61.5194 6.71456 61.6197 6.86267C61.6531 6.63227 61.6865 6.4677 61.7033 6.33604C61.72 6.20439 61.7534 6.10565 61.7701 6.0069C61.8036 5.92462 61.8203 5.84233 61.8537 5.79296C61.8704 5.74359 61.9206 5.67776 61.954 5.61194C62.1713 5.29925 62.4054 5.06886 62.6896 4.9372C62.957 4.80554 63.2412 4.73972 63.5087 4.73972C63.609 4.73972 63.7427 4.75617 63.9099 4.77263C64.0771 4.78909 64.2443 4.85491 64.4281 4.9372C64.5953 5.01948 64.7625 5.15114 64.9297 5.31571C65.0968 5.48028 65.2138 5.71068 65.2974 5.97399C65.3309 6.08919 65.3476 6.20439 65.3643 6.30313C65.381 6.41833 65.3977 6.54999 65.4144 6.71456C65.4312 6.87913 65.4479 7.06015 65.4479 7.29055V8.1134V16.128C65.4813 17.1318 65.4144 18.0205 65.264 18.8104ZM56.638 12.277C56.7216 12.6555 56.8386 13.0011 57.0225 13.2974C57.2064 13.5936 57.4571 13.8404 57.758 14.0215C58.0757 14.2189 58.4601 14.3012 58.9449 14.3012C59.6471 14.3012 60.2322 14.0379 60.717 13.4784C61.2017 12.9353 61.4358 12.1618 61.4358 11.1744C61.4358 10.0553 61.2017 9.21602 60.7337 8.64002C60.2656 8.06403 59.6805 7.7678 58.9449 7.7678C58.3431 7.7678 57.875 7.91592 57.5574 8.21214C57.2398 8.50837 56.989 8.85396 56.8386 9.23248C56.6881 9.61099 56.5878 9.9895 56.5711 10.3516C56.5544 10.7136 56.5377 10.9605 56.5377 11.1086C56.521 11.5035 56.5544 11.8985 56.638 12.277Z" fill="white"/>
<path d="M67.8885 8.98573C68.1393 8.22871 68.5238 7.53752 69.0754 6.91215C69.6271 6.28679 70.3292 5.77662 71.2152 5.3652C72.0845 4.95377 73.1544 4.75629 74.4082 4.75629C75.6285 4.75629 76.665 4.95377 77.5343 5.33228C78.4035 5.71079 79.1224 6.2045 79.674 6.81341C80.2424 7.42232 80.6436 8.11351 80.9111 8.88699C81.1786 9.66047 81.2956 10.434 81.2956 11.2074C81.2956 11.9809 81.1619 12.7544 80.9111 13.5279C80.6436 14.3178 80.2424 15.009 79.674 15.6344C79.1057 16.2597 78.4035 16.7699 77.5343 17.1649C76.665 17.5598 75.6285 17.7573 74.4082 17.7573C73.3717 17.7573 72.4356 17.6092 71.583 17.2965C70.7304 16.9838 70.0116 16.5395 69.4098 15.9635C68.808 15.3875 68.3399 14.6963 68.0222 13.8899C67.7046 13.0835 67.5375 12.1784 67.5375 11.191C67.5207 10.4669 67.6378 9.74276 67.8885 8.98573ZM71.7502 12.4088C71.8337 12.8367 71.9842 13.2152 72.1848 13.5772C72.4021 13.9228 72.6863 14.2191 73.0374 14.433C73.3884 14.6634 73.8565 14.7621 74.4082 14.7621C74.7592 14.7621 75.1103 14.6963 75.4446 14.5647C75.779 14.433 76.0632 14.2191 76.3139 13.9228C76.5647 13.6431 76.7653 13.2646 76.9324 12.8367C77.0829 12.3923 77.1665 11.8657 77.1665 11.2733C77.1665 10.8289 77.1163 10.3846 77.016 9.9567C76.9157 9.52882 76.7486 9.15031 76.5312 8.82117C76.3139 8.49203 76.0297 8.22871 75.6787 8.03123C75.3276 7.83375 74.9097 7.735 74.4249 7.735C73.9401 7.735 73.5222 7.83375 73.1711 8.03123C72.82 8.22871 72.5359 8.49203 72.3018 8.80471C72.0678 9.11739 71.9173 9.4959 71.8003 9.90733C71.7 10.3188 71.6499 10.7466 71.6499 11.1745C71.6331 11.5695 71.6833 11.9809 71.7502 12.4088Z" fill="white"/>
</svg>
