<svg width="85" height="24" viewBox="0 0 85 24" fill="none" xmlns="http://www.w3.org/2000/svg">
<path d="M0.0174789 2.8911C0.0174789 2.56417 0.0524366 2.28886 0.0873943 2.06517C0.122352 1.84148 0.192268 1.6522 0.297141 1.48013C0.402014 1.30806 0.524366 1.1532 0.699155 0.963922C0.873943 0.791853 1.03125 0.671404 1.20604 0.568163C1.38083 0.464921 1.5731 0.430507 1.80032 0.396093C2.02755 0.361679 2.32469 0.327266 2.65679 0.327266C2.98889 0.310059 3.40838 0.310059 3.89779 0.310059H7.53339C8.44229 0.310059 9.35119 0.378886 10.2251 0.533749C11.1166 0.688611 11.973 1.06716 12.7945 1.68661C13.9481 2.54696 14.7696 3.61379 15.2591 4.90431C15.7485 6.19483 15.9932 7.64021 15.9932 9.20604C15.9932 9.61901 15.9757 10.1352 15.9407 10.7375C15.9058 11.3397 15.7834 11.9764 15.5911 12.6474C15.3989 13.3185 15.1017 14.0068 14.7172 14.7123C14.3327 15.4177 13.7733 16.0716 13.0567 16.6738C12.41 17.2245 11.606 17.6202 10.6272 17.8783C9.64833 18.1364 8.65204 18.2569 7.60331 18.2569H3.91527C3.3909 18.2569 2.93645 18.2569 2.56939 18.2397C2.20234 18.2397 1.87024 18.1881 1.60806 18.1192C1.34587 18.0504 1.11865 17.9472 0.92638 17.7923C0.734112 17.6374 0.541845 17.431 0.349577 17.1728C0.15731 16.8975 0.0524366 16.5706 0.0349577 16.1404C0.0174789 15.7275 0 15.1424 0 14.3853V4.16441C0 3.6482 0 3.21803 0.0174789 2.8911ZM6.72936 14.6951C7.27121 14.6951 7.81305 14.6606 8.37238 14.609C8.9317 14.5574 9.42111 14.3509 9.85808 14.0068C10.2951 13.6626 10.6621 13.1292 10.9243 12.4065C11.1865 11.6838 11.3263 10.6514 11.3263 9.32649C11.3263 7.96714 11.1865 6.93473 10.8893 6.19483C10.6097 5.45493 10.2251 4.92152 9.73573 4.57738C9.2638 4.23324 8.72195 4.02676 8.09271 3.95793C7.48095 3.8891 6.83424 3.85469 6.17004 3.85469H4.64938V14.6951H6.72936Z" fill="#3C096C"/>
<path d="M18.5103 9.39533C18.7725 8.60381 19.1745 7.88112 19.7513 7.22725C20.3281 6.57339 21.0622 6.03997 21.9711 5.6098C22.88 5.17963 23.9986 4.97314 25.3095 4.97314C26.5855 4.97314 27.6692 5.17963 28.5781 5.57539C29.487 5.97115 30.2386 6.48735 30.8154 7.12401C31.3922 7.76067 31.8292 8.48336 32.1088 9.29208C32.3885 10.1008 32.5108 10.9095 32.5108 11.7183C32.5108 12.527 32.371 13.3357 32.1088 14.1444C31.8292 14.9704 31.4097 15.6931 30.8154 16.3469C30.2386 17.0008 29.487 17.5342 28.5781 17.9472C27.6692 18.3601 26.568 18.5666 25.3095 18.5666C24.2259 18.5666 23.2296 18.4118 22.3556 18.0848C21.4817 17.7579 20.7126 17.2933 20.0834 16.6911C19.4541 16.0888 18.9647 15.3661 18.6326 14.523C18.3005 13.6799 18.1257 12.7335 18.1257 11.7011C18.1257 10.9439 18.2481 10.1868 18.5103 9.39533ZM22.5479 12.9744C22.6353 13.4217 22.7926 13.8175 23.0023 14.1961C23.2296 14.5574 23.5267 14.8671 23.8938 15.0908C24.2608 15.3317 24.7502 15.435 25.327 15.435C25.6941 15.435 26.0611 15.3661 26.4107 15.2285C26.7603 15.0908 27.0574 14.8671 27.3196 14.5574C27.5818 14.2649 27.7915 13.8691 27.9489 13.4217C28.1062 12.9572 28.1936 12.4065 28.1936 11.7871C28.1936 11.3225 28.1411 10.8579 28.0362 10.4105C27.9314 9.96315 27.7566 9.56739 27.5294 9.22326C27.3021 8.87912 27.005 8.60381 26.6379 8.39732C26.2709 8.19084 25.8339 8.0876 25.327 8.0876C24.8201 8.0876 24.3832 8.19084 24.0161 8.39732C23.6491 8.60381 23.3519 8.87912 23.1072 9.20605C22.8625 9.53298 22.6877 9.92874 22.5828 10.3589C22.478 10.7891 22.4255 11.2365 22.4255 11.6838C22.4255 12.0968 22.4605 12.527 22.5479 12.9744Z" fill="#3C096C"/>
<path d="M35.0098 5.67829C35.3594 4.55984 35.9012 3.59625 36.6353 2.7359C37.3694 1.89276 38.3133 1.22169 39.4494 0.722691C40.5855 0.240897 41.9489 0 43.522 0C45.13 0 46.5284 0.240897 47.682 0.722691C48.853 1.20448 49.8144 1.85835 50.566 2.68428C51.3176 3.51021 51.8769 4.49101 52.2439 5.62667C52.5935 6.76232 52.7858 7.96681 52.7858 9.27453C52.7858 10.5651 52.611 11.7695 52.2614 12.9052C51.9118 14.0409 51.37 15.0216 50.6359 15.8648C49.9018 16.7079 48.9579 17.379 47.8043 17.8608C46.6507 18.3426 45.2699 18.5835 43.6793 18.5835C42.1412 18.5835 40.7953 18.3598 39.6417 17.8952C38.4881 17.4306 37.5442 16.794 36.7752 15.968C36.0061 15.1421 35.4468 14.1613 35.0622 13.0084C34.6952 11.8556 34.5029 10.5995 34.5029 9.24012C34.4854 7.96681 34.6602 6.79674 35.0098 5.67829ZM39.3096 10.7887C39.3795 11.2361 39.4844 11.6319 39.5893 11.976C39.6941 12.3202 39.834 12.6127 39.9738 12.8364C40.1136 13.0773 40.2709 13.2837 40.4108 13.4558C40.6555 13.7483 41.0225 14.0753 41.5469 14.4022C42.0712 14.7291 42.7529 14.9012 43.5919 14.9012C44.4134 14.9012 45.1475 14.7119 45.7768 14.3506C46.406 13.9892 46.9129 13.4902 47.2799 12.8708C47.612 12.3374 47.8043 11.7351 47.9092 11.0468C47.9966 10.3758 48.049 9.73912 48.049 9.17129C48.049 8.99922 48.049 8.74112 48.0315 8.41419C48.0141 8.07005 47.9616 7.6915 47.8917 7.27853C47.8218 6.86556 47.682 6.4526 47.5072 6.00522C47.3324 5.57504 47.0702 5.17929 46.7381 4.81794C46.406 4.45659 45.9865 4.16408 45.4971 3.94039C44.9902 3.7167 44.3785 3.59625 43.6269 3.59625C42.1761 3.59625 41.0924 4.07804 40.3234 5.04163C39.5718 6.00522 39.1872 7.38177 39.1872 9.17129C39.1872 9.80795 39.2397 10.3242 39.3096 10.7887Z" fill="#F59704"/>
<path d="M68.238 19.6677C68.0807 20.4937 67.7486 21.1992 67.2592 21.767C66.7698 22.3348 66.0706 22.765 65.1617 23.0747C64.2703 23.3844 63.0818 23.5221 61.631 23.5221C60.7046 23.5221 59.8307 23.4533 59.0092 23.3156C58.1702 23.1779 57.4011 22.9026 56.6845 22.4897C56.3349 22.2832 56.0553 22.0939 55.8455 21.8874C55.6358 21.6809 55.4785 21.4917 55.3736 21.3024C55.2687 21.1131 55.1988 20.9238 55.1638 20.769C55.1289 20.6141 55.1289 20.4593 55.1289 20.3216C55.1289 19.7882 55.3211 19.3752 55.7057 19.0999C56.0902 18.8074 56.4922 18.6697 56.9467 18.6697C57.4186 18.6697 57.8031 18.7902 58.1178 19.0139C58.4324 19.2548 58.747 19.5473 59.0791 19.8914C59.3588 20.1667 59.6559 20.356 60.0055 20.4765C60.3376 20.5969 60.8095 20.6657 61.4038 20.6657C62.068 20.6657 62.5923 20.5969 62.9594 20.4593C63.3265 20.3216 63.6061 20.1151 63.7809 19.8398C63.9557 19.5645 64.0606 19.2376 64.0955 18.8418C64.1305 18.446 64.148 17.9815 64.1829 17.4825C64.2004 17.1555 64.2004 16.8802 64.2004 16.6909C64.2004 16.5017 64.1829 16.2952 64.1654 16.1059C64.0606 16.2436 63.9207 16.4156 63.711 16.6393C63.5187 16.863 63.2565 17.0867 62.9419 17.3104C62.6273 17.5341 62.2428 17.7061 61.7883 17.861C61.3339 18.0159 60.8095 18.0847 60.2152 18.0847C59.3588 18.0847 58.6072 17.9126 57.943 17.5857C57.2788 17.2588 56.7195 16.777 56.23 16.1747C55.7581 15.5725 55.3911 14.867 55.1464 14.0411C54.9016 13.2151 54.7793 12.3204 54.7793 11.3396C54.7793 10.6685 54.8143 10.1007 54.9017 9.60168C54.989 9.11989 55.0939 8.68971 55.2337 8.32837C55.3736 7.96702 55.5134 7.6573 55.6882 7.39919C55.863 7.14109 56.0203 6.93461 56.1951 6.74533C57.2438 5.55805 58.5897 4.97302 60.2152 4.97302C60.8445 4.97302 61.4038 5.05905 61.8757 5.23112C62.3651 5.40319 62.7671 5.60967 63.1167 5.85057C63.4488 6.09147 63.7285 6.33237 63.9382 6.57326C64.148 6.83137 64.3228 7.02064 64.4276 7.1755C64.4626 6.93461 64.4975 6.76254 64.515 6.62488C64.5325 6.48723 64.5675 6.38399 64.5849 6.28074C64.6199 6.19471 64.6374 6.10867 64.6723 6.05705C64.6898 6.00543 64.7422 5.93661 64.7772 5.86778C65.0044 5.54085 65.2491 5.29995 65.5463 5.16229C65.8259 5.02464 66.1231 4.95581 66.4027 4.95581C66.5076 4.95581 66.6474 4.97302 66.8222 4.99022C66.997 5.00743 67.1718 5.07626 67.3641 5.16229C67.5389 5.24833 67.7137 5.38598 67.8884 5.55805C68.0632 5.73012 68.1856 5.97102 68.273 6.24633C68.3079 6.36678 68.3254 6.48723 68.3429 6.59047C68.3604 6.71092 68.3778 6.84857 68.3953 7.02064C68.4128 7.19271 68.4303 7.38199 68.4303 7.62288V8.48323V16.863C68.4652 17.9126 68.3953 18.8418 68.238 19.6677ZM59.2189 12.8366C59.3063 13.2323 59.4287 13.5937 59.6209 13.9034C59.8132 14.2131 60.0754 14.4712 60.39 14.6605C60.7221 14.867 61.1241 14.953 61.631 14.953C62.3651 14.953 62.9769 14.6777 63.4838 14.0927C63.9907 13.5249 64.2354 12.7161 64.2354 11.6837C64.2354 10.5136 63.9907 9.6361 63.5012 9.03385C63.0118 8.43161 62.4001 8.12189 61.631 8.12189C61.0018 8.12189 60.5124 8.27675 60.1803 8.58647C59.8482 8.8962 59.586 9.25754 59.4287 9.6533C59.2714 10.0491 59.1665 10.4448 59.149 10.8234C59.1315 11.2019 59.1141 11.46 59.1141 11.6149C59.0966 12.0279 59.1315 12.4408 59.2189 12.8366Z" fill="#3C096C"/>
<path d="M70.9822 9.39533C71.2444 8.60381 71.6464 7.88112 72.2232 7.22725C72.8 6.57339 73.5341 6.03997 74.4605 5.6098C75.3694 5.17963 76.4881 4.97314 77.799 4.97314C79.0749 4.97314 80.1586 5.17963 81.0675 5.57539C81.9764 5.97115 82.728 6.48735 83.3048 7.12401C83.8991 7.76067 84.3186 8.48336 84.5982 9.29208C84.8779 10.1008 85.0002 10.9095 85.0002 11.7183C85.0002 12.527 84.8604 13.3357 84.5982 14.1444C84.3186 14.9704 83.8991 15.6931 83.3048 16.3469C82.7105 17.0008 81.9764 17.5342 81.0675 17.9472C80.1586 18.3601 79.0749 18.5666 77.799 18.5666C76.7153 18.5666 75.7365 18.4118 74.845 18.0848C73.9536 17.7579 73.202 17.2933 72.5728 16.6911C71.9436 16.0888 71.4541 15.3661 71.122 14.523C70.79 13.6799 70.6152 12.7335 70.6152 11.7011C70.5977 10.9439 70.72 10.1868 70.9822 9.39533ZM75.0198 12.9744C75.1072 13.4217 75.2645 13.8175 75.4743 14.1961C75.7015 14.5574 75.9986 14.8671 76.3657 15.0908C76.7328 15.3317 77.2222 15.435 77.799 15.435C78.166 15.435 78.5331 15.3661 78.8827 15.2285C79.2322 15.0908 79.5294 14.8671 79.7916 14.5574C80.0537 14.2649 80.2635 13.8691 80.4383 13.4217C80.5956 12.9572 80.683 12.4065 80.683 11.7871C80.683 11.3225 80.6305 10.8579 80.5257 10.4105C80.4208 9.96315 80.246 9.56739 80.0188 9.22326C79.7916 8.87912 79.4944 8.60381 79.1274 8.39732C78.7603 8.19084 78.3233 8.0876 77.8164 8.0876C77.3096 8.0876 76.8726 8.19084 76.5055 8.39732C76.1385 8.60381 75.8413 8.87912 75.5966 9.20605C75.3519 9.53298 75.1946 9.92874 75.0723 10.3589C74.9674 10.7891 74.915 11.2365 74.915 11.6838C74.8975 12.0968 74.9499 12.527 75.0198 12.9744Z" fill="#3C096C"/>
</svg>
