<svg width="18" height="10" viewBox="0 0 18 10" fill="none" xmlns="http://www.w3.org/2000/svg">
<path fill-rule="evenodd" clip-rule="evenodd" d="M0 1C0 0.447715 0.447715 0 1 0H17C17.5523 0 18 0.447715 18 1C18 1.55228 17.5523 2 17 2H1C0.447715 2 0 1.55228 0 1ZM0 9C0 8.44772 0.447715 8 1 8H17C17.5523 8 18 8.44772 18 9C18 9.55229 17.5523 10 17 10H1C0.447715 10 0 9.55229 0 9Z" fill="url(#paint0_linear)"/>
<defs>
<linearGradient id="paint0_linear" x1="-2" y1="5.5" x2="19.5" y2="5.5" gradientUnits="userSpaceOnUse">
<stop offset="0.364647" stop-color="#3C096C"/>
<stop offset="0.653876" stop-color="#3C096C"/>
</linearGradient>
</defs>
</svg>
