<svg width="106" height="16" viewBox="0 0 106 16" fill="none" xmlns="http://www.w3.org/2000/svg">
<path d="M12.5816 9.34534C11.4327 7.94808 9.97339 7.20288 8.48299 7.20288C6.99259 7.20288 5.53323 7.97913 4.38438 9.34534C3.39078 10.5873 2.76978 12.1398 2.76978 13.5371C2.76978 14.2202 2.98713 14.717 3.39078 15.0586C3.79443 15.4001 4.32228 15.4933 4.91223 15.4933C5.53323 15.4933 6.24738 15.3691 6.93049 15.2449C7.52044 15.1207 8.07934 15.0275 8.51404 15.0275C8.88664 15.0275 9.41449 15.1207 9.97339 15.2449C11.2775 15.4933 12.7679 15.7727 13.6373 15.0586C14.041 14.717 14.2583 14.2202 14.2583 13.5371C14.2273 12.1398 13.6063 10.5873 12.5816 9.34534Z" fill="#F59704"/>
<path d="M12.7057 1.8002C12.271 1.1792 11.6811 0.837646 11.0601 0.837646C10.4391 0.837646 9.81807 1.1792 9.41441 1.8002C9.04181 2.3591 8.82446 3.1043 8.82446 3.9116C8.82446 4.68786 9.04181 5.43306 9.41441 6.02301C9.84912 6.64401 10.4391 6.98556 11.0601 6.98556C11.6811 6.98556 12.3021 6.64401 12.7057 6.02301C13.0783 5.46411 13.2957 4.71891 13.2957 3.9116C13.2957 3.13535 13.0783 2.39015 12.7057 1.8002Z" fill="#F59704"/>
<path d="M7.61348 1.8002C7.17878 1.1792 6.58883 0.837646 5.96783 0.837646C5.34683 0.837646 4.72582 1.1792 4.32217 1.8002C3.91852 2.39015 3.70117 3.13535 3.70117 3.9116C3.70117 4.68786 3.91852 5.43306 4.29112 6.02301C4.72582 6.64401 5.31578 6.98556 5.93678 6.98556C6.55778 6.98556 7.17878 6.64401 7.58243 6.02301C7.95503 5.46411 8.17238 4.71891 8.17238 3.9116C8.20343 3.13535 7.98608 2.39015 7.61348 1.8002Z" fill="#F59704"/>
<path d="M16.9288 6.64405C16.7735 6.0541 16.4009 5.65045 15.9041 5.46415C15.5004 5.3089 15.0657 5.33995 14.6621 5.52625C14.1032 5.8057 13.6374 6.33355 13.389 7.0477C13.2027 7.6066 13.1717 8.22761 13.3269 8.72441C13.4822 9.31436 13.8548 9.71801 14.3516 9.90431C14.5068 9.96641 14.6931 9.99746 14.8794 9.99746C15.1278 9.99746 15.3762 9.93536 15.5936 9.84221C16.1525 9.56276 16.6183 9.03491 16.8667 8.32076C17.053 7.76186 17.084 7.1719 16.9288 6.64405Z" fill="#F59704"/>
<path d="M3.63911 7.0477C3.39071 6.3646 2.92496 5.8057 2.36606 5.52625C1.96241 5.33995 1.49666 5.3089 1.12406 5.46415C0.627255 5.65045 0.285704 6.0541 0.0994034 6.64405C-0.055847 7.1719 -0.0247969 7.76186 0.161504 8.32076C0.409904 9.00386 0.875655 9.56276 1.43456 9.84221C1.68296 9.96641 1.93136 9.99746 2.14871 9.99746C2.33501 9.99746 2.52131 9.96641 2.67656 9.90431C3.17336 9.71801 3.51491 9.31436 3.70121 8.72441C3.85646 8.19656 3.82541 7.6066 3.63911 7.0477Z" fill="#F59704"/>
<path d="M34.5816 9.34534C33.4327 7.94808 31.9734 7.20288 30.483 7.20288C28.9926 7.20288 27.5332 7.97913 26.3844 9.34534C25.3908 10.5873 24.7698 12.1398 24.7698 13.5371C24.7698 14.2202 24.9871 14.717 25.3908 15.0586C25.7944 15.4001 26.3223 15.4933 26.9122 15.4933C27.5332 15.4933 28.2474 15.3691 28.9305 15.2449C29.5204 15.1207 30.0793 15.0275 30.514 15.0275C30.8866 15.0275 31.4145 15.1207 31.9734 15.2449C33.2775 15.4933 34.7679 15.7727 35.6373 15.0586C36.041 14.717 36.2583 14.2202 36.2583 13.5371C36.2273 12.1398 35.6063 10.5873 34.5816 9.34534Z" fill="#F59704"/>
<path d="M34.7057 1.8002C34.271 1.1792 33.6811 0.837646 33.0601 0.837646C32.4391 0.837646 31.8181 1.1792 31.4144 1.8002C31.0418 2.3591 30.8245 3.1043 30.8245 3.9116C30.8245 4.68786 31.0418 5.43306 31.4144 6.02301C31.8491 6.64401 32.4391 6.98556 33.0601 6.98556C33.6811 6.98556 34.3021 6.64401 34.7057 6.02301C35.0783 5.46411 35.2957 4.71891 35.2957 3.9116C35.2957 3.13535 35.0783 2.39015 34.7057 1.8002Z" fill="#F59704"/>
<path d="M29.6135 1.8002C29.1788 1.1792 28.5888 0.837646 27.9678 0.837646C27.3468 0.837646 26.7258 1.1792 26.3222 1.8002C25.9185 2.39015 25.7012 3.13535 25.7012 3.9116C25.7012 4.68786 25.9185 5.43306 26.2911 6.02301C26.7258 6.64401 27.3158 6.98556 27.9368 6.98556C28.5578 6.98556 29.1788 6.64401 29.5824 6.02301C29.955 5.46411 30.1724 4.71891 30.1724 3.9116C30.2034 3.13535 29.9861 2.39015 29.6135 1.8002Z" fill="#F59704"/>
<path d="M38.9288 6.64405C38.7735 6.0541 38.4009 5.65045 37.9041 5.46415C37.5004 5.3089 37.0657 5.33995 36.6621 5.52625C36.1032 5.8057 35.6374 6.33355 35.389 7.0477C35.2027 7.6066 35.1717 8.22761 35.3269 8.72441C35.4822 9.31436 35.8548 9.71801 36.3516 9.90431C36.5068 9.96641 36.6931 9.99746 36.8794 9.99746C37.1278 9.99746 37.3762 9.93536 37.5936 9.84221C38.1525 9.56276 38.6183 9.03491 38.8667 8.32076C39.053 7.76186 39.084 7.1719 38.9288 6.64405Z" fill="#F59704"/>
<path d="M25.6391 7.0477C25.3907 6.3646 24.925 5.8057 24.3661 5.52625C23.9624 5.33995 23.4967 5.3089 23.1241 5.46415C22.6273 5.65045 22.2857 6.0541 22.0994 6.64405C21.9442 7.1719 21.9752 7.76186 22.1615 8.32076C22.4099 9.00386 22.8757 9.56276 23.4346 9.84221C23.683 9.96641 23.9314 9.99746 24.1487 9.99746C24.335 9.99746 24.5213 9.96641 24.6766 9.90431C25.1734 9.71801 25.5149 9.31436 25.7012 8.72441C25.8565 8.19656 25.8254 7.6066 25.6391 7.0477Z" fill="#F59704"/>
<path d="M56.5816 9.34534C55.4327 7.94808 53.9734 7.20288 52.483 7.20288C50.9926 7.20288 49.5332 7.97913 48.3844 9.34534C47.3908 10.5873 46.7698 12.1398 46.7698 13.5371C46.7698 14.2202 46.9871 14.717 47.3908 15.0586C47.7944 15.4001 48.3223 15.4933 48.9122 15.4933C49.5332 15.4933 50.2474 15.3691 50.9305 15.2449C51.5204 15.1207 52.0793 15.0275 52.514 15.0275C52.8866 15.0275 53.4145 15.1207 53.9734 15.2449C55.2775 15.4933 56.7679 15.7727 57.6373 15.0586C58.041 14.717 58.2583 14.2202 58.2583 13.5371C58.2273 12.1398 57.6063 10.5873 56.5816 9.34534Z" fill="#F59704"/>
<path d="M56.7057 1.8002C56.271 1.1792 55.6811 0.837646 55.0601 0.837646C54.4391 0.837646 53.8181 1.1792 53.4144 1.8002C53.0418 2.3591 52.8245 3.1043 52.8245 3.9116C52.8245 4.68786 53.0418 5.43306 53.4144 6.02301C53.8491 6.64401 54.4391 6.98556 55.0601 6.98556C55.6811 6.98556 56.3021 6.64401 56.7057 6.02301C57.0783 5.46411 57.2957 4.71891 57.2957 3.9116C57.2957 3.13535 57.0783 2.39015 56.7057 1.8002Z" fill="#F59704"/>
<path d="M51.6135 1.8002C51.1788 1.1792 50.5888 0.837646 49.9678 0.837646C49.3468 0.837646 48.7258 1.1792 48.3222 1.8002C47.9185 2.39015 47.7012 3.13535 47.7012 3.9116C47.7012 4.68786 47.9185 5.43306 48.2911 6.02301C48.7258 6.64401 49.3158 6.98556 49.9368 6.98556C50.5578 6.98556 51.1788 6.64401 51.5824 6.02301C51.955 5.46411 52.1724 4.71891 52.1724 3.9116C52.2034 3.13535 51.9861 2.39015 51.6135 1.8002Z" fill="#F59704"/>
<path d="M60.9288 6.64405C60.7735 6.0541 60.4009 5.65045 59.9041 5.46415C59.5004 5.3089 59.0657 5.33995 58.6621 5.52625C58.1032 5.8057 57.6374 6.33355 57.389 7.0477C57.2027 7.6066 57.1717 8.22761 57.3269 8.72441C57.4822 9.31436 57.8548 9.71801 58.3516 9.90431C58.5068 9.96641 58.6931 9.99746 58.8794 9.99746C59.1278 9.99746 59.3762 9.93536 59.5936 9.84221C60.1525 9.56276 60.6183 9.03491 60.8667 8.32076C61.053 7.76186 61.084 7.1719 60.9288 6.64405Z" fill="#F59704"/>
<path d="M47.6391 7.0477C47.3907 6.3646 46.925 5.8057 46.3661 5.52625C45.9624 5.33995 45.4967 5.3089 45.1241 5.46415C44.6273 5.65045 44.2857 6.0541 44.0994 6.64405C43.9442 7.1719 43.9752 7.76186 44.1615 8.32076C44.4099 9.00386 44.8757 9.56276 45.4346 9.84221C45.683 9.96641 45.9314 9.99746 46.1487 9.99746C46.335 9.99746 46.5213 9.96641 46.6766 9.90431C47.1734 9.71801 47.5149 9.31436 47.7012 8.72441C47.8565 8.19656 47.8254 7.6066 47.6391 7.0477Z" fill="#F59704"/>
<path d="M78.5816 9.34534C77.4327 7.94808 75.9734 7.20288 74.483 7.20288C72.9926 7.20288 71.5332 7.97913 70.3844 9.34534C69.3908 10.5873 68.7698 12.1398 68.7698 13.5371C68.7698 14.2202 68.9871 14.717 69.3908 15.0586C69.7944 15.4001 70.3223 15.4933 70.9122 15.4933C71.5332 15.4933 72.2474 15.3691 72.9305 15.2449C73.5204 15.1207 74.0793 15.0275 74.514 15.0275C74.8866 15.0275 75.4145 15.1207 75.9734 15.2449C77.2775 15.4933 78.7679 15.7727 79.6373 15.0586C80.041 14.717 80.2583 14.2202 80.2583 13.5371C80.2273 12.1398 79.6063 10.5873 78.5816 9.34534Z" fill="#F59704"/>
<path d="M78.7057 1.8002C78.271 1.1792 77.6811 0.837646 77.0601 0.837646C76.4391 0.837646 75.8181 1.1792 75.4144 1.8002C75.0418 2.3591 74.8245 3.1043 74.8245 3.9116C74.8245 4.68786 75.0418 5.43306 75.4144 6.02301C75.8491 6.64401 76.4391 6.98556 77.0601 6.98556C77.6811 6.98556 78.3021 6.64401 78.7057 6.02301C79.0783 5.46411 79.2957 4.71891 79.2957 3.9116C79.2957 3.13535 79.0783 2.39015 78.7057 1.8002Z" fill="#F59704"/>
<path d="M73.6135 1.8002C73.1788 1.1792 72.5888 0.837646 71.9678 0.837646C71.3468 0.837646 70.7258 1.1792 70.3222 1.8002C69.9185 2.39015 69.7012 3.13535 69.7012 3.9116C69.7012 4.68786 69.9185 5.43306 70.2911 6.02301C70.7258 6.64401 71.3158 6.98556 71.9368 6.98556C72.5578 6.98556 73.1788 6.64401 73.5824 6.02301C73.955 5.46411 74.1724 4.71891 74.1724 3.9116C74.2034 3.13535 73.9861 2.39015 73.6135 1.8002Z" fill="#F59704"/>
<path d="M82.9288 6.64405C82.7735 6.0541 82.4009 5.65045 81.9041 5.46415C81.5004 5.3089 81.0657 5.33995 80.6621 5.52625C80.1032 5.8057 79.6374 6.33355 79.389 7.0477C79.2027 7.6066 79.1717 8.22761 79.3269 8.72441C79.4822 9.31436 79.8548 9.71801 80.3516 9.90431C80.5068 9.96641 80.6931 9.99746 80.8794 9.99746C81.1278 9.99746 81.3762 9.93536 81.5936 9.84221C82.1525 9.56276 82.6183 9.03491 82.8667 8.32076C83.053 7.76186 83.084 7.1719 82.9288 6.64405Z" fill="#F59704"/>
<path d="M69.6391 7.0477C69.3907 6.3646 68.925 5.8057 68.3661 5.52625C67.9624 5.33995 67.4967 5.3089 67.1241 5.46415C66.6273 5.65045 66.2857 6.0541 66.0994 6.64405C65.9442 7.1719 65.9752 7.76186 66.1615 8.32076C66.4099 9.00386 66.8757 9.56276 67.4346 9.84221C67.683 9.96641 67.9314 9.99746 68.1487 9.99746C68.335 9.99746 68.5213 9.96641 68.6766 9.90431C69.1734 9.71801 69.5149 9.31436 69.7012 8.72441C69.8565 8.19656 69.8254 7.6066 69.6391 7.0477Z" fill="#F59704"/>
<path d="M100.582 9.34534C99.4327 7.94808 97.9734 7.20288 96.483 7.20288C94.9926 7.20288 93.5332 7.97913 92.3844 9.34534C91.3908 10.5873 90.7698 12.1398 90.7698 13.5371C90.7698 14.2202 90.9871 14.717 91.3908 15.0586C91.7944 15.4001 92.3223 15.4933 92.9122 15.4933C93.5332 15.4933 94.2474 15.3691 94.9305 15.2449C95.5204 15.1207 96.0793 15.0275 96.514 15.0275C96.8866 15.0275 97.4145 15.1207 97.9734 15.2449C99.2775 15.4933 100.768 15.7727 101.637 15.0586C102.041 14.717 102.258 14.2202 102.258 13.5371C102.227 12.1398 101.606 10.5873 100.582 9.34534Z" fill="#F59704"/>
<path d="M100.706 1.8002C100.271 1.1792 99.6811 0.837646 99.0601 0.837646C98.4391 0.837646 97.8181 1.1792 97.4144 1.8002C97.0418 2.3591 96.8245 3.1043 96.8245 3.9116C96.8245 4.68786 97.0418 5.43306 97.4144 6.02301C97.8491 6.64401 98.4391 6.98556 99.0601 6.98556C99.6811 6.98556 100.302 6.64401 100.706 6.02301C101.078 5.46411 101.296 4.71891 101.296 3.9116C101.296 3.13535 101.078 2.39015 100.706 1.8002Z" fill="#F59704"/>
<path d="M95.6135 1.8002C95.1788 1.1792 94.5888 0.837646 93.9678 0.837646C93.3468 0.837646 92.7258 1.1792 92.3222 1.8002C91.9185 2.39015 91.7012 3.13535 91.7012 3.9116C91.7012 4.68786 91.9185 5.43306 92.2911 6.02301C92.7258 6.64401 93.3158 6.98556 93.9368 6.98556C94.5578 6.98556 95.1788 6.64401 95.5824 6.02301C95.955 5.46411 96.1724 4.71891 96.1724 3.9116C96.2034 3.13535 95.9861 2.39015 95.6135 1.8002Z" fill="#F59704"/>
<path d="M104.929 6.64405C104.774 6.0541 104.401 5.65045 103.904 5.46415C103.5 5.3089 103.066 5.33995 102.662 5.52625C102.103 5.8057 101.637 6.33355 101.389 7.0477C101.203 7.6066 101.172 8.22761 101.327 8.72441C101.482 9.31436 101.855 9.71801 102.352 9.90431C102.507 9.96641 102.693 9.99746 102.879 9.99746C103.128 9.99746 103.376 9.93536 103.594 9.84221C104.152 9.56276 104.618 9.03491 104.867 8.32076C105.053 7.76186 105.084 7.1719 104.929 6.64405Z" fill="#F59704"/>
<path d="M91.6391 7.0477C91.3907 6.3646 90.925 5.8057 90.3661 5.52625C89.9624 5.33995 89.4967 5.3089 89.1241 5.46415C88.6273 5.65045 88.2857 6.0541 88.0994 6.64405C87.9442 7.1719 87.9752 7.76186 88.1615 8.32076C88.4099 9.00386 88.8757 9.56276 89.4346 9.84221C89.683 9.96641 89.9314 9.99746 90.1487 9.99746C90.335 9.99746 90.5213 9.96641 90.6766 9.90431C91.1734 9.71801 91.5149 9.31436 91.7012 8.72441C91.8565 8.19656 91.8254 7.6066 91.6391 7.0477Z" fill="#F59704"/>
</svg>
