<svg width="14" height="14" viewBox="0 0 14 14" fill="none" xmlns="http://www.w3.org/2000/svg">
<path d="M13.4546 5.00239H11.4303L10.9989 2.42497C10.9119 2.035 10.721 1.67586 10.4464 1.38566C10.1718 1.09546 9.82372 0.885043 9.43914 0.776751C9.05276 0.652443 8.65026 0.585361 8.24445 0.577637H5.76659C5.36078 0.585361 4.95829 0.652443 4.57191 0.776751C4.18733 0.885043 3.83925 1.09546 3.56464 1.38566C3.29002 1.67586 3.09911 2.035 3.01219 2.42497L2.58077 5.00239H0.556449C0.469325 5.00186 0.383308 5.02192 0.305407 5.06094C0.227505 5.09995 0.159923 5.15682 0.108167 5.22691C0.0564103 5.297 0.0219432 5.37832 0.00757401 5.46425C-0.00679523 5.55019 -0.000660104 5.6383 0.0254793 5.72141L2.10511 12.6904C2.21099 13.0271 2.42145 13.3212 2.70592 13.5301C2.99038 13.7389 3.33404 13.8517 3.68696 13.8519H10.3241C10.6751 13.8493 11.0163 13.7355 11.2985 13.5268C11.5808 13.3181 11.7896 13.0253 11.8949 12.6904L13.9745 5.72141C14.0004 5.63919 14.0067 5.55205 13.9929 5.46697C13.9791 5.38188 13.9456 5.30119 13.8951 5.23134C13.8446 5.1615 13.7785 5.10442 13.702 5.06467C13.6255 5.02491 13.5408 5.00359 13.4546 5.00239V5.00239ZM3.70908 5.00239L4.10731 2.60196C4.15097 2.40597 4.25224 2.22751 4.39811 2.08953C4.54398 1.95154 4.72778 1.86034 4.92589 1.82763C5.19801 1.74135 5.4812 1.69378 5.76659 1.68382H8.24445C8.53317 1.69267 8.81967 1.74024 9.09622 1.82763C9.29433 1.86034 9.47813 1.95154 9.624 2.08953C9.76987 2.22751 9.87114 2.40597 9.9148 2.60196L10.302 5.00239H3.66484H3.70908V5.00239Z" fill="#F59704"/>
</svg>
